<?xml version="1.0" standalone="no"?>
<!DOCTYPE svg PUBLIC "-//W3C//DTD SVG 1.1//EN" "http://www.w3.org/Graphics/SVG/1.1/DTD/svg11.dtd" >
<svg xmlns="http://www.w3.org/2000/svg">
<metadata>Generated by IcoMoon</metadata>
<defs>
<font id="icomoon" horiz-adv-x="1024">
<font-face units-per-em="1024" ascent="960" descent="-64" />
<missing-glyph horiz-adv-x="1024" />
<glyph unicode="&#x20;" horiz-adv-x="512" d="" />
<glyph unicode="&#xe900;" glyph-name="payumoney" d="M692 621.257v68.8h-93.6c-29.6 0-52.8-24-52.8-52.8v-441.6c0-36-11.2-64-34.4-84-22.4-20-54.4-29.6-94.4-29.6s-72 9.6-94.4 29.6c-22.4 20-34.4 48-34.4 83.2v444c0 29.6-24 52.8-52.8 52.8h-126.4c-28.8 0-52.8-24-52.8-52.8v-157.6c0-0.8 0-1.6 0-2.4v-274.4c0-32 7.2-68.8 21.6-110.4 8.8-25.6 25.6-50.4 49.6-75.2s50.4-43.2 80-56c28.8-12.8 65.6-21.6 108.8-26.4s83.2-6.4 120-6.4c63.2 0 117.6 7.2 162.4 21.6 32.8 10.4 63.2 28 92.8 53.6s51.2 55.2 64.8 89.6c13.6 34.4 20.8 70.4 20.8 108.8v271.2c0 1.6 0 2.4 0 4v114.4h-56.8c-16 0-28 12-28 28zM833.6 762.857h-113.6c-15.2 0-28-12.8-28-28v-44.8h32c29.6 0 52.8-24 52.8-52.8v-43.2h56.8c15.2 0 28 12.8 28 28v112.8c0 15.2-12.8 28-28 28zM962.4 864.457h-84c-9.6 0-16.8-7.2-16.8-16.8v-84c0-9.6 7.2-16.8 16.8-16.8h84c9.6 0 16.8 7.2 16.8 16.8v84c0 8.8-8 16.8-16.8 16.8zM798.4 869.257h52.8c5.6 0 10.4 4.8 10.4 10.4v52.8c0 5.6-4.8 10.4-10.4 10.4h-52.8c-5.6 0-10.4-4.8-10.4-10.4v-52.8c0-5.6 4.8-10.4 10.4-10.4z" />
<glyph unicode="&#xe901;" glyph-name="olark" d="M537.6 551.657c0.8 0 4-1.6 8.8-4s11.2-6.4 18.4-12.8c7.2-6.4 15.2-13.6 23.2-24 8-9.6 16-22.4 23.2-36.8-3.2 6.4-7.2 13.6-12 20s-10.4 13.6-16.8 20-13.6 12-21.6 17.6c-8 5.6-16.8 10.4-27.2 14.4l-4 4c-0.8 0.8-1.6 1.6-1.6 2.4s0 1.6 0 1.6c0 0 0.8 0.8 1.6 0.8h1.6c0.8 0 1.6 0 1.6 0 0.8 0 1.6 0 1.6-0.8 1.6-1.6 2.4-1.6 3.2-2.4v0zM455.2 638.857c1.6 0.8 2.4 1.6 3.2 3.2s1.6 2.4 1.6 4c0 1.6 0.8 3.2 0 4.8 0 1.6-0.8 3.2-1.6 4s-1.6 1.6-1.6 2.4c-0.8 0.8-1.6 1.6-2.4 1.6-0.8 0.8-1.6 0.8-2.4 0.8s-1.6 0-2.4 0c0 0-0.8 0-1.6 0 0 0-0.8 0-1.6 0 0 0-0.8 0-1.6-0.8 0 0-0.8 0-1.6-0.8-1.6-0.8-2.4-1.6-3.2-3.2s-1.6-2.4-1.6-4c0-1.6 0-3.2 0-4.8s0.8-3.2 1.6-4c0.8-0.8 0.8-1.6 1.6-2.4s1.6-1.6 2.4-1.6c0.8-0.8 1.6-0.8 2.4-0.8s1.6 0 2.4 0c0 0 0.8 0 1.6 0 0 0 0.8 0 1.6 0 0 0 0.8 0 1.6 0.8s1.6 0.8 1.6 0.8zM348.8 174.857c-15.2-2.4-30.4-3.2-44.8-3.2l5.6-110.4 92-64.8-8 184.8-44.8-6.4zM98.4 277.257c-14.4 27.2-23.2 58.4-24.8 93.6l-4.8 240c-1.6 28 1.6 56 9.6 83.2s21.6 53.6 41.6 76c20 22.4 45.6 42.4 78.4 56 8.8 4 17.6 7.2 26.4 9.6-10.4-1.6-20.8-3.2-31.2-4.8-4-0.8-8-1.6-11.2-1.6h-0.8c-1.6 0-2.4-0.8-4-0.8-2.4 0-4-0.8-6.4-1.6 0 0-0.8 0-1.6 0-1.6 0-3.2-0.8-4.8-1.6-1.6 0-3.2-0.8-4.8-1.6-0.8 0-1.6 0-1.6-0.8-1.6 0-3.2-0.8-4.8-1.6-1.6 0-2.4-0.8-4-1.6-0.8 0-1.6-0.8-2.4-0.8-1.6-0.8-2.4-0.8-4-1.6-2.4-0.8-4-1.6-6.4-2.4-1.6-0.8-2.4-0.8-4-1.6-0.8 0-1.6-0.8-2.4-0.8-1.6-0.8-2.4-1.6-4-1.6-1.6-0.8-2.4-0.8-4-1.6-2.4-0.8-4-2.4-6.4-3.2-0.8 0-1.6-0.8-2.4-1.6 0 0 0 0-0.8 0-2.4-1.6-5.6-3.2-8.8-4.8 0 0-0.8-0.8-1.6-0.8l-6.4-4c0 0-0.8 0-0.8-0.8l-2.4-1.6c-1.6-1.6-4-2.4-4.8-3.2s-2.4-1.6-3.2-2.4c-0.8-0.8-1.6-1.6-2.4-2.4-0.8 0-0.8-0.8-1.6-1.6-1.6-1.6-4-3.2-5.6-4.8-0.8-0.8-1.6-1.6-2.4-1.6 0 0-0.8 0-0.8-0.8-2.4-2.4-4.8-4-7.2-6.4 0 0-0.8-0.8-0.8-0.8-2.4-2.4-4.8-4.8-7.2-7.2l-0.8-0.8c0 3.2 0 3.2-0.8 2.4-1.6-1.6-3.2-4-4.8-5.6 0 0-0.8-0.8-0.8-1.6-0.8-0.8-0.8-1.6-1.6-1.6-0.8-0.8-1.6-1.6-2.4-2.4s-1.6-2.4-2.4-3.2c0-0.8-0.8-1.6-1.6-1.6 0 0-0.8-0.8-0.8-1.6-1.6-2.4-4-4.8-4.8-8 0 0 0-0.8-0.8-0.8v0c-1.6-3.2-4-6.4-4.8-9.6 0 0 0-0.8 0-0.8l-0.8-1.6c-1.6-2.4-2.4-4.8-3.2-7.2 0-0.8-0.8-1.6-0.8-1.6 0-0.8 0-0.8-0.8-1.6-0.8-3.2-2.4-6.4-3.2-9.6 0 0 0-0.8 0-0.8-1.6-3.2-2.4-7.2-3.2-10.4 0-0.8 0-0.8-0.8-1.6s0-1.6-0.8-1.6c0-1.6-0.8-2.4-0.8-3.2-0.8-1.6-0.8-4-1.6-5.6 0-0.8 0-1.6-0.8-2.4-0.8-4-1.6-7.2-2.4-11.2 0 0 0-0.8 0-0.8 0-0.8 0-1.6 0-1.6-0.8-3.2-0.8-6.4-1.6-8.8 0-0.8 0-1.6 0-2.4l-0.8-11.2v-2.4c0-3.2 0-6.4 0-9.6v-3.2c0-4 0-7.2 0-11.2l4.8-216.8c0.8-16.8 4-32 8-47.2 4-14.4 9.6-28 16.8-40.8 7.2-12 15.2-23.2 24.8-33.6 9.6-9.6 20-19.2 32-27.2 20-12.8 40-26.4 60.8-39.2-24 18.4-43.2 40-57.6 65.6zM1012.8 701.257v0c-1.6 10.4-4 20-7.2 29.6s-7.2 18.4-12 27.2c-4.8 8.8-10.4 16-17.6 23.2-7.2 8-15.2 15.2-24 20.8-8.8 6.4-18.4 11.2-28.8 15.2s-21.6 7.2-33.6 8.8c-12 1.6-24.8 2.4-37.6 2.4l-533.6-8.8c-34.4-1.6-65.6-7.2-92.8-17.6-27.2-9.6-51.2-24.8-70.4-42.4-19.2-18.4-33.6-40-43.2-64.8s-13.6-52.8-12-83.2l4.8-238.4c1.6-24 6.4-48 16.8-70.4 9.6-22.4 24.8-42.4 44.8-59.2 20-16 44.8-28.8 75.2-36 29.6-7.2 65.6-8.8 106.4-3.2l72 9.6 7.2-164.8 269.6 200.8h3.2l152.8 13.6c0 0 0.8 0 1.6 0s0.8 0 1.6 0 0.8 0 1.6 0 0.8 0 1.6 0c24 4 45.6 11.2 64 20.8s34.4 23.2 48 38.4c12.8 15.2 23.2 32.8 29.6 52.8 7.2 20 10.4 40.8 10.4 64l4 228c0 12-0.8 23.2-2.4 33.6zM800 407.657c-2.4-1.6-6.4-3.2-10.4-4.8s-8.8-4-12-5.6c-4-1.6-8-2.4-10.4-3.2-2.4 0-3.2-1.6-4-4.8-0.8-2.4 0-5.6 0-9.6 0.8-4 1.6-7.2 3.2-11.2s3.2-7.2 4.8-10.4c0-0.8 0.8-1.6 1.6-2.4 0-0.8 0.8-1.6 1.6-1.6 0-0.8 0.8-0.8 1.6-1.6v0 0c0 0 0 0 0 0s0 0-0.8 0-1.6 0.8-2.4 0.8c-0.8 0.8-2.4 0.8-4 1.6s-3.2 1.6-4.8 2.4c-2.4 1.6-5.6 2.4-8.8 4.8-3.2 1.6-7.2 4-11.2 5.6s-8 4-12.8 6.4l-13.6 6.4c-8 3.2-16 7.2-23.2 10.4-8 3.2-16 6.4-23.2 8.8s-14.4 4.8-20 5.6c-6.4 1.6-11.2 1.6-15.2 1.6h-0.8c0 0-0.8 0-0.8 0s-0.8 0-0.8 0c0 0-0.8 0-0.8 0 0-0.8 0.8-3.2 1.6-7.2s1.6-9.6 3.2-15.2c1.6-5.6 2.4-12 3.2-18.4s1.6-12 1.6-17.6v-4c0-1.6 0-2.4 0-3.2s0-1.6 0-2.4c0-0.8 0-1.6-0.8-1.6l-8 7.2-55.2 49.6 0.8-20.8-21.6-27.2 17.6 6.4h0.8c0.8 0 1.6 0 1.6-0.8 0.8 0 0.8-0.8 1.6-1.6 0-0.8 0.8-1.6 0.8-1.6 0-0.8 0-1.6 0-2.4s0-1.6-0.8-2.4c0-0.8-0.8-1.6-1.6-1.6-0.8-0.8-1.6-0.8-1.6-1.6l-30.4-11.2 1.6-13.6 1.6-14.4v-2.4c0 0-0.8-1.6-0.8-2.4s-0.8-1.6-1.6-1.6c-0.8-0.8-1.6-0.8-2.4-0.8s-1.6 0-2.4 0.8h-0.8c-0.8 0-0.8 0.8-1.6 1.6 0 0.8 0 1.6-0.8 1.6l-1.6 15.2-0.8 6.4-8-8.8-9.6-10.4-0.8-0.8c0 0-0.8 0-0.8-0.8 0 0-0.8 0-0.8 0s-0.8 0-0.8 0h-1.6c0 0-0.8 0-1.6 0 0 0-0.8 0-0.8 0.8l-0.8 0.8c0 0.8-0.8 1.6-0.8 1.6 0 0.8 0 1.6 0 2.4s0 1.6 0 2.4c0 0.8 0.8 1.6 0.8 2.4l12 13.6-32.8-7.2h-1.6c-0.8 0-1.6 0-1.6 0.8-0.8 0-0.8 0.8-1.6 0.8 0 0-0.8 0.8-0.8 1.6s0 1.6-0.8 1.6c0 0.8 0 1.6 0 2.4s0.8 1.6 0.8 2.4c0 0.8 0.8 1.6 1.6 1.6 0.8 0.8 1.6 0.8 2.4 0.8l48.8 11.2 29.6 38.4-0.8 19.2c-2.4 0-5.6 0-8.8 0s-7.2 0.8-11.2 1.6c-4 0.8-8.8 1.6-13.6 2.4-4.8 1.6-9.6 2.4-15.2 4l-0.8-15.2-20-28.8 17.6 6.4h2.4c0.8 0 1.6 0 1.6-0.8 0.8 0 0.8-0.8 1.6-1.6l0.8-1.6c0-0.8 0-1.6 0-2.4s0-1.6-0.8-2.4c0-0.8-0.8-1.6-1.6-1.6-0.8-0.8-1.6-0.8-1.6-1.6l-31.2-11.2-2.4-16.8c0-0.8 0-1.6-0.8-2.4 0-0.8-0.8-1.6-1.6-1.6 0 0-0.8-0.8-1.6-1.6-0.8 0-1.6-0.8-1.6-0.8h-1.6c-0.8 0-1.6 0-2.4 0.8-0.8 0-1.6 0.8-1.6 1.6s-0.8 1.6-0.8 2.4v2.4l1.6 5.6-12.8-11.2-0.8-0.8c0 0 0 0-0.8 0 0 0-0.8 0-0.8 0h-0.8c-0.8 0-1.6 0-1.6 0-0.8 0-0.8 0-1.6 0.8 0 0-0.8 0-0.8 0.8 0 0-0.8 0.8-0.8 0.8s0 0 0 0.8c0 0 0 0 0 0.8 0 0 0 0.8 0 0.8v2.4c0 0.8 0 1.6 0 1.6 0 0.8 0.8 0.8 0.8 1.6s0.8 0.8 1.6 1.6l8 7.2-20.8-1.6h-6.4c-0.8 0-1.6 0-2.4 0.8-0.8 0-1.6 0.8-1.6 1.6s-0.8 1.6-0.8 1.6c0 0.8 0 1.6 0 2.4s0 0.8 0 1.6c0 0 0 0.8 0 1.6 0 0 0 0.8 0.8 1.6 0 0 0.8 0.8 0.8 0.8l0.8 0.8c0 0 0.8 0 0.8 0.8 0 0 0.8 0 0.8 0s0.8 0 0.8 0l43.2 2.4c0 0 0 0.8 0.8 1.6 0 0 0 0.8 0.8 0.8l0.8 0.8c0 0 0.8 0 0.8 0.8l28 35.2 0.8 15.2c-1.6 0.8-2.4 1.6-4 1.6-1.6 0.8-2.4 1.6-4 1.6-1.6 0.8-2.4 1.6-4 2.4s-2.4 1.6-4 2.4c-11.2 6.4-22.4 15.2-33.6 26.4s-20.8 24.8-29.6 42.4c-8.8 17.6-16 37.6-20.8 62.4s-7.2 53.6-7.2 86.4v8c0 4 0 9.6 0 16s0 12.8 0.8 18.4c0 6.4 0.8 11.2 1.6 15.2 0 0-0.8 1.6-1.6 4.8-0.8 2.4-1.6 6.4-1.6 9.6-0.8 4-0.8 8-0.8 12.8s0.8 8.8 1.6 12.8c0 0 1.6-1.6 4-3.2s4.8-4 7.2-6.4c2.4-2.4 5.6-4.8 7.2-7.2 2.4-2.4 4-4.8 4.8-6.4 1.6 0 4.8-0.8 10.4-2.4 5.6-2.4 12-5.6 19.2-11.2s14.4-13.6 20.8-25.6c6.4-11.2 12-25.6 15.2-44 1.6-0.8 10.4-6.4 23.2-15.2s29.6-20 47.2-33.6c17.6-13.6 36-28.8 52.8-44.8s31.2-32 41.6-48c4-7.2 15.2-15.2 29.6-23.2s32-16 48.8-23.2c16.8-7.2 33.6-13.6 45.6-17.6 12.8-4.8 21.6-7.2 23.2-8 1.6-2.4 0-3.2-3.2-4.8zM459.2 654.857c-0.8 0.8-1.6 1.6-1.6 2.4-0.8 0.8-1.6 1.6-2.4 1.6-0.8 0.8-1.6 0.8-2.4 0.8s-1.6 0-2.4 0c0 0-0.8 0-1.6 0 0 0-0.8 0-1.6 0 0 0-0.8 0-1.6-0.8 0 0-0.8 0-1.6-0.8-1.6-0.8-2.4-1.6-3.2-3.2s-1.6-2.4-1.6-4c0-1.6 0-3.2 0-4.8s0.8-3.2 1.6-4c0.8-0.8 0.8-1.6 1.6-2.4s1.6-1.6 2.4-1.6c0.8-0.8 1.6-0.8 2.4-0.8s1.6 0 2.4 0c0 0 0.8 0 1.6 0 0 0 0.8 0 1.6 0 0 0 0.8 0 1.6 0.8 0 0.8 0.8 0.8 1.6 0.8 1.6 0.8 2.4 1.6 3.2 3.2s1.6 2.4 1.6 4c0 1.6 0.8 3.2 0 4.8 0 0.8-0.8 2.4-1.6 4zM564 535.657c-7.2 6.4-13.6 9.6-18.4 12.8-4.8 2.4-8 4-8.8 4l-1.6 0.8c-0.8 0-1.6 0.8-1.6 0.8-0.8 0-1.6 0-1.6 0h-1.6c-0.8 0-1.6 0-1.6-0.8 0 0-0.8-0.8 0-1.6 0-0.8 0.8-1.6 1.6-2.4l4-4c9.6-4 19.2-8.8 27.2-13.6 8-5.6 15.2-11.2 21.6-17.6s12-12.8 16.8-19.2c4.8-6.4 8.8-12.8 12-19.2-7.2 15.2-15.2 27.2-23.2 36.8-9.6 9.6-17.6 16.8-24.8 23.2zM626.4 438.057c-1.6 4.8-3.2 10.4-5.6 16.8s-5.6 13.6-9.6 20c1.6-4 4-7.2 5.6-12 1.6-4 3.2-8.8 4.8-12.8 1.6-4.8 3.2-8.8 4.8-13.6s2.4-9.6 4-15.2c0 0 0 2.4-0.8 4.8-1.6 3.2-2.4 7.2-3.2 12z" />
<glyph unicode="&#xe902;" glyph-name="alipay" d="M928 149.257c-91.2-131.2-244-217.6-416-217.6-280 0-507.2 227.2-507.2 507.2s227.2 507.2 507.2 507.2 507.2-227.2 507.2-507.2c0-60.8-10.4-118.4-30.4-172.8l-294.4 96.8c0 0 21.6 32 44.8 94.4s26.4 96.8 26.4 96.8l-183.2 1.6v61.6l222.4 1.6v43.2h-222.4v97.6h-108.8v-98.4h-207.2v-43.2l207.2 1.6v-65.6h-166.4v-34.4h342.4c0 0-4-28-16.8-62.4s-26.4-64.8-26.4-64.8-160.8 54.4-245.6 54.4-188-33.6-197.6-129.6c-9.6-96.8 48-148.8 129.6-168s156.8 0 222.4 31.2c65.6 31.2 130.4 102.4 130.4 102.4l282.4-133.6zM565.6 323.657c0 0-101.6-120.8-222.4-120.8s-145.6 57.6-145.6 99.2 24.8 86.4 127.2 92.8c102.4 5.6 240.8-71.2 240.8-71.2z" />
<glyph unicode="&#xe903;" glyph-name="ecwid" d="M206.4 182.857c-13.6 0-27.2-10.4-27.2-27.2 0-13.6 10.4-27.2 27.2-27.2s29.6 13.6 27.2 27.2c-0.8 13.6-11.2 27.2-27.2 27.2zM823.2 185.257c-13.6 0-27.2-10.4-27.2-27.2 0-13.6 10.4-27.2 27.2-27.2 13.6 0 27.2 10.4 27.2 27.2 0 14.4-11.2 27.2-27.2 27.2zM823.2 950.857h-622.4c-110.4 0-199.2-88.8-199.2-199.2v-624.8c0-110.4 88.8-199.2 199.2-199.2h624.8c110.4 0 196.8 88.8 196.8 199.2v624.8c0 110.4-88.8 199.2-199.2 199.2zM645.6 654.057c20.8 0 37.6-16.8 37.6-37.6s-16.8-37.6-37.6-37.6c-20.8 0-37.6 16.8-37.6 37.6s16.8 37.6 37.6 37.6zM645.6 514.057c20.8 0 37.6-16.8 37.6-37.6s-16.8-37.6-37.6-37.6c-20.8 0-37.6 16.8-37.6 37.6s16.8 37.6 37.6 37.6zM516 654.057c20.8 0 37.6-16.8 37.6-37.6s-16.8-37.6-37.6-37.6c-20.8 0-37.6 16.8-37.6 37.6s16.8 37.6 37.6 37.6zM516 514.057c20.8 0 37.6-16.8 37.6-37.6s-16.8-37.6-37.6-37.6c-20.8 0-37.6 16.8-37.6 37.6s16.8 37.6 37.6 37.6zM389.6 654.057c20.8 0 37.6-16.8 37.6-37.6s-16.8-37.6-37.6-37.6c-20.8 0-37.6 16.8-37.6 37.6s16.8 37.6 37.6 37.6zM389.6 514.057c20.8 0 37.6-16.8 37.6-37.6s-16.8-37.6-37.6-37.6c-20.8 0-37.6 16.8-37.6 37.6s16.8 37.6 37.6 37.6zM206.4 80.457c-43.2 0-78.4 35.2-78.4 78.4s35.2 78.4 78.4 78.4 78.4-35.2 78.4-78.4-35.2-78.4-78.4-78.4zM642.4 261.257c-43.2 0-43.2 0-80.8 0s-51.2 16-53.6 21.6c0-5.6-13.6-21.6-51.2-21.6s-37.6 0-80.8 0c-48.8 0-126.4 24-148 102.4s-53.6 196.8-67.2 248c-16 53.6-16 56.8 8 56.8s70.4-2.4 86.4-56.8c16-53.6 45.6-156 56.8-194.4 19.2-56.8 64.8-61.6 94.4-61.6 43.2 0 64.8 2.4 64.8 35.2 13.6 0 35.2 0 43.2 0 10.4 0 29.6 0 43.2 0 0-32 24-35.2 64.8-35.2 48.8 2.4 83.2 13.6 102.4 72.8 16 53.6 59.2 220.8 78.4 293.6 10.4 43.2 61.6 48.8 83.2 48.8 24 0 16-21.6 2.4-75.2-16-61.6-56.8-236.8-83.2-317.6-28-79.2-90.4-120-163.2-116.8zM823.2 80.457c-43.2 0-78.4 35.2-78.4 78.4s35.2 78.4 78.4 78.4 78.4-35.2 78.4-78.4-35.2-78.4-78.4-78.4z" />
<glyph unicode="&#xe904;" glyph-name="ideal_payment" d="M981.6 637.257c-22.4 54.4-54.4 100.8-96 138.4-73.6 65.6-176.8 100.8-298.4 102.4 0 0.8 0 0.8 0 0.8h-579.2v-879.2h579.2c126.4 1.6 227.2 33.6 298.4 93.6 86.4 73.6 130.4 189.6 130.4 345.6 0 74.4-12 141.6-34.4 198.4zM576.8 57.257c-20 0-459.2 0-510.4 0 0 52.8 0 709.6 0 762.4 51.2 0.8 490.4 0.8 510.4 0.8 112 0 205.6-30.4 271.2-88 72.8-64.8 110.4-163.2 110.4-292.8-0.8-257.6-125.6-382.4-381.6-382.4zM200.8 609.257c-50.4 0-91.2-40.8-91.2-91.2s40.8-91.2 91.2-91.2c50.4 0 91.2 40.8 91.2 91.2s-40.8 91.2-91.2 91.2zM118.4 383.657h161.6v-268h-161.6v268zM384 462.057c4 1.6 8 3.2 10.4 5.6s4.8 6.4 6.4 12.8c2.4 7.2 3.2 15.2 3.2 27.2 0 11.2-0.8 20-2.4 26.4-1.6 5.6-4.8 10.4-8 13.6s-7.2 4.8-12 6.4c-3.2 0.8-9.6 1.6-24.8 1.6 0 0-0.8 0-1.6 0v-93.6c5.6 0 10.4 0 10.4 0 8.8-1.6 15.2-0.8 18.4 0zM552.8 749.257h-196.8v-160.8c4.8 0 12.8 0 12.8 0 13.6 0 23.2-0.8 30.4-3.2 9.6-3.2 18.4-8 24.8-15.2 7.2-7.2 12-16 16-26.4 3.2-10.4 5.6-22.4 5.6-37.6 0-13.6-1.6-24.8-4.8-33.6-4-12-9.6-21.6-17.6-28.8-6.4-5.6-13.6-10.4-23.2-13.6-7.2-1.6-16.8-3.2-28.8-3.2h-14.4v-312h196.8c171.2 0 352.8 51.2 352.8 316-0.8 250.4-182.4 318.4-353.6 318.4zM595.2 426.857h-124v160.8h120.8v-34.4c0 0-74.4 0-81.6 0 0-5.6 0-20 0-25.6 7.2 0 76 0 76 0v-34.4c0 0-68.8 0-76 0 0-5.6 0-26.4 0-32.8 8 0 84.8 0 84.8 0v-33.6zM727.2 426.857c0 0-12 30.4-13.6 35.2-4.8 0-50.4 0-55.2 0-1.6-4.8-12.8-35.2-12.8-35.2h-41.6l62.4 160.8h38.4l64-160.8h-41.6zM784.8 426.857v160h39.2c0 0 0-117.6 0-125.6 7.2 0 76.8 0 76.8 0v-34.4h-116zM670.4 495.657c7.2 0 22.4 0 29.6 0-3.2 7.2-10.4 28-15.2 40-4-12-11.2-32.8-14.4-40z" />
<glyph unicode="&#xe905;" glyph-name="pagseguro" d="M981.6 617.257c-21.6 54.4-48.8 103.2-85.6 148-36.8 44-80 80-128 108-76.8 44-155.2 70.4-246.4 70.4-4.8 0-8.8 0-13.6 0-89.6 0-172.8-25.6-250.4-70.4-48.8-28-92-64.8-129.6-108s-65.6-93.6-85.6-148c-21.6-56.8-33.6-115.2-33.6-177.6 0-70.4 15.2-136 40.8-197.6 25.6-60.8 60.8-113.6 107.2-160 44.8-44.8 97.6-80.8 159.2-107.2 60.8-26.4 127.2-41.6 196-41.6 69.6 0 135.2 13.6 197.6 41.6 59.2 25.6 112.8 61.6 159.2 107.2 45.6 45.6 80.8 99.2 105.6 160 26.4 62.4 41.6 126.4 41.6 197.6-0.8 62.4-12 120.8-34.4 177.6zM213.6 766.857c31.2 36.8 68.8 68.8 113.6 93.6 88 47.2 180 62.4 278.4 44 99.2-19.2 180-67.2 242.4-143.2 32.8-40.8 56.8-85.6 71.2-132.8 14.4-48 19.2-96 15.2-148l-0.8-19.2c-24 29.6-54.4 49.6-92.8 60-14.4 4-32 4.8-48.8 4.8-11.2 17.6-24 34.4-37.6 48.8-38.4 42.4-83.2 75.2-135.2 95.2-48.8 21.6-101.6 32-156 32-54.4-0.8-106.4-13.6-153.6-34.4-47.2-23.2-89.6-53.6-124-94.4-24-29.6-44-59.2-56.8-92.8-4.8 52-0.8 104 14.4 155.2 14.4 49.6 39.2 93.6 70.4 131.2zM844 382.857c-3.2 30.4-11.2 60.8-24.8 88.8 29.6 0 54.4-8 75.2-22.4 11.2-7.2 20-16.8 29.6-25.6-15.2-60-42.4-112-81.6-157.6l4.8 28.8c1.6 28 0.8 57.6-3.2 88zM691.2 156.457c-30.4-13.6-60.8-23.2-93.6-26.4-5.6 7.2-8.8 15.2-12 24.8-8 26.4-11.2 54.4-8 84.8 3.2 32 11.2 62.4 26.4 93.6 17.6 32 40 59.2 66.4 81.6 24.8 21.6 51.2 36.8 81.6 46.4 17.6-30.4 29.6-62.4 37.6-96.8 6.4-33.6 7.2-64.8 4.8-96.8-3.2-19.2-7.2-40-12-59.2l-2.4-1.6c-28-21.6-57.6-38.4-88.8-50.4zM777.6 194.857c-9.6-25.6-22.4-50.4-38.4-72.8-15.2-22.4-35.2-44-56.8-62.4-17.6 4.8-32 11.2-44.8 20.8-13.6 9.6-25.6 21.6-34.4 36 64 13.6 121.6 40 174.4 78.4zM539.2 194.857c4-28.8 13.6-54.4 28-77.6-36.8-0.8-74.4 1.6-109.6 8-58.4 13.6-112 36-160 70.4-49.6 33.6-88.8 77.6-119.2 129.6-21.6 37.6-36 74.4-44.8 113.6 12 32 30.4 62.4 52.8 89.6 32 36.8 69.6 66.4 113.6 85.6 44 20.8 91.2 32 141.6 32.8 51.2 0 101.6-8.8 148-28.8 48-19.2 90.4-49.6 128-88.8l12-13.6c-22.4-9.6-44.8-21.6-66.4-36.8-32-24-60.8-54.4-81.6-87.2-20-32.8-34.4-68.8-40.8-107.2-4.8-31.2-7.2-60-1.6-89.6zM128.8 184.457c-19.2 28-35.2 57.6-48 87.2-26.4 63.2-40 131.2-38.4 200.8 2.4 54.4 11.2 104.8 28.8 152.8 17.6 46.4 40 88.8 70.4 128-17.6-28-32.8-58.4-44.8-89.6-14.4-46.4-22.4-91.2-22.4-137.6 0-48.8 9.6-96.8 26.4-144.8-0.8-25.6-0.8-48.8 0.8-74.4 9.6-74.4 40-140 91.2-196.8-24 22.4-44.8 48.8-64 74.4zM424-11.543c-64 13.6-121.6 40-176 76.8l-16 13.6c-32 28-56.8 59.2-75.2 93.6-20 34.4-32 72.8-38.4 112-3.2 21.6-3.2 44-0.8 64.8l8-16c31.2-56 72-103.2 120.8-140.8 51.2-36.8 106.4-63.2 170.4-78.4 50.4-9.6 100.8-11.2 151.2-6.4l9.6-10.4c24-28 54.4-46.4 88.8-54.4-37.6-25.6-76.8-42.4-119.2-52-40.8-7.2-82.4-9.6-123.2-2.4zM671.2 2.857c-45.6-15.2-91.2-24-140.8-25.6l-56.8 3.2c80.8-0.8 153.6 18.4 218.4 60.8 9.6 0 18.4 0 26.4 1.6 25.6 0.8 48.8 8.8 71.2 19.2-35.2-24.8-76.8-44.8-118.4-59.2zM956 309.257c-0.8-18.4-4.8-37.6-12-58.4-6.4-18.4-16-38.4-25.6-58.4l-3.2-4.8c-21.6-30.4-46.4-60-72.8-84.8-20-16-40-28-60.8-36-22.4-8.8-44.8-12-67.2-11.2 32 24.8 60 54.4 80.8 87.2s36.8 68.8 46.4 108c40 48 72.8 100.8 89.6 160.8l11.2-20c4-9.6 8-18.4 11.2-28 3.2-16.8 3.2-34.4 2.4-54.4zM967.2 294.057c6.4 40.8 4 81.6-9.6 120-5.6 13.6-12.8 27.2-19.2 37.6 3.2 16.8 4.8 32.8 6.4 50.4 4 55.2-3.2 108.8-20.8 160-17.6 50.4-44.8 95.2-82.4 137.6-24 26.4-50.4 50.4-79.2 70.4 34.4-19.2 64.8-44 91.2-71.2 28.8-28 52.8-57.6 72.8-91.2s36-71.2 48-109.6c12-40 19.2-81.6 21.6-124.8 1.6-62.4-8.8-122.4-28.8-179.2z" />
<glyph unicode="&#xe906;" glyph-name="paysera" d="M668.534 390.378c40.058 34.694 66.547 82.445 74.784 134.794l175.776 0.013c-8.832-98.739-54.102-190.656-126.995-257.846s-168.186-104.838-267.315-105.616c-59.306-0.685-115.926-24.806-157.504-67.098s-64.73-99.318-64.401-158.624h-174.648c-0.179 105.45 41.401 206.678 115.649 281.558s175.122 117.315 280.568 118.029c52.992 0.685 104.032 20.093 144.086 54.79zM128 165.987v359.184l174.213 0.013v-187.354c-72.431-40.621-132.604-99.974-174.213-171.843zM670.067 730.277c-40.317 35.596-92.070 55.534-145.85 56.189-53.734-0.712-105.43-20.677-145.696-56.268s-66.428-84.444-73.734-137.686h-175.558c7.896 99.62 52.884 192.649 126.068 260.695s169.237 106.156 269.164 106.793c99.885-0.701 195.875-38.839 269.005-106.879s118.080-161.033 125.974-260.609h-175.546c-7.312 53.283-33.51 102.17-73.827 137.765z" />
<glyph unicode="&#xe907;" glyph-name="skrill" d="M512 937.257c-275.2 0-498.4-223.2-498.4-498.4s223.2-498.4 498.4-498.4 498.4 223.2 498.4 498.4-223.2 498.4-498.4 498.4zM496 123.657c-83.2 0-153.6 8-216.8 24.8v145.6c41.6-17.6 111.2-35.2 182.4-35.2 64.8 0 104 21.6 104 58.4 0 44-47.2 47.2-64.8 48-210.4 13.6-232.8 137.6-232.8 190.4 0 91.2 64.8 198.4 248 198.4 106.4 0 164-16.8 212.8-33.6l2.4-0.8v-141.6l-1.6 0.8c-20 8-43.2 16.8-43.2 16.8-41.6 12.8-100 25.6-145.6 25.6-25.6 0-94.4 0-94.4-52 0-43.2 47.2-45.6 68-47.2 150.4-10.4 240.8-84 240.8-197.6 0.8-100-80-200.8-259.2-200.8z" />
<glyph unicode="&#xe908;" glyph-name="webmoney" d="M509.6 944.457c76 0 151.2-17.6 219.2-51.2 10.4-4.8 20.8-10.4 31.2-16.8l-46.4-41.6-69.6 72.8-116.8-104-69.6 76-218.4-196 140-154.4-55.2-48.8 137.6-153.6-54.4-48 196.8-219.2 116.8 107.2 103.2-116.8c-20.8-16-43.2-31.2-66.4-44-240.8-136.8-547.2-52-684 188.8s-52 548 188.8 684.8c76 42.4 160.8 64.8 247.2 64.8v0zM418.4 474.857l120 107.2 107.2-119.2-120-107.2-107.2 119.2zM503.2 268.457l119.2 107.2 108-119.2-119.2-108-108 120zM333.6 678.057l119.2 108 107.2-120-119.2-107.2-107.2 119.2zM552 736.457l89.6 80 80.8-89.6-89.6-80-80.8 89.6zM711.2 366.857l89.6 80.8 80.8-89.6-89.6-80.8-80.8 89.6zM789.6 186.057l89.6 80.8 80.8-89.6-89.6-80.8-80.8 89.6zM825.6 600.457l60 53.6 53.6-59.2-59.2-53.6-54.4 59.2zM749.6 778.057l60 53.6 53.6-60-59.2-53.6-54.4 60zM902.4 422.857l60 54.4 53.6-60-60-53.6-53.6 59.2zM634.4 555.657l89.6 80.8 80.8-88.8-89.6-80.8-80.8 88.8z" />
<glyph unicode="&#xe909;" glyph-name="webpay" d="M477.834 918.857l69.232-251.728h-138.464l69.232 251.728zM767.107 730.249l-129.046-226.953-97.907 97.91 226.954 129.043zM188.55 153.033l129.044 226.954 97.91-97.91-226.954-129.043zM767.408 151.443l-226.954 129.043 97.91 97.91 129.043-226.954zM188.247 731.84l226.953-129.044-97.909-97.91-129.044 226.954zM1024 441.033l-320.077-69.232v138.464l320.077-69.232zM0 442.252l251.728 69.232v-138.467l-251.728 69.235zM477.824-35.575l-69.235 251.728h138.467l-69.232-251.728z" />
<glyph unicode="&#xe90a;" glyph-name="dragonpay" d="M742.4 180.457c0 0 0 0 0 0s0 0 0 0c-0.8 10.4-1.6 20.8-4 30.4-4.8 31.2-13.6 81.6-27.2 117.6-22.4 57.6-20.8 100.8-20.8 100.8s4.8 66.4 12 86.4c7.2 20 4.8 15.2 4.8 15.2s-22.4-3.2-35.2-29.6c-12.8-25.6-23.2-53.6-27.2-60s-16-25.6-32.8-10.4-4.8 38.4 0 43.2c4.8 4.8 36 53.6 40.8 75.2 4.8 20.8 12.8 51.2 3.2 91.2s-44.8 62.4-44.8 62.4 7.2-68 4.8-88.8-12-60.8-36-60c-24.8 0.8-29.6 16-30.4 18.4-1.6 3.2-5.6 25.6 18.4 58.4 36 40.8 0 113.6 0 113.6s-7.2 20-16 32.8c-9.6 12.8-25.6 32-29.6 45.6-3.2 14.4-12 48.8-10.4 85.6 0.8 35.2 4.8 37.6 4.8 37.6-0.8 0-45.6-21.6-77.6-80.8-32-60-25.6-101.6-25.6-101.6s7.2-44.8 16-68c9.6-23.2 8-56 7.2-63.2s-5.6-18.4-12.8-20.8c-7.2-2.4-29.6-3.2-36 33.6s-5.6 92.8 0.8 105.6c7.2 12.8-45.6-35.2-50.4-91.2s17.6-113.6 17.6-113.6 16-35.2 25.6-45.6c9.6-10.4 28-42.4 25.6-52.8s-5.6-17.6-12.8-18.4-20-2.4-35.2 33.6-20.8 47.2-35.2 60.8-43.2 2.4-43.2 2.4 15.2-18.4 22.4-42.4 32.8-63.2 17.6-121.6-32-108.8-33.6-140.8c-0.8-15.2-1.6-29.6-2.4-41.6 0-4 0-8 0-12 0-126.4 102.4-229.6 229.6-229.6s228.8 102.4 228.8 228.8c0 4.8 0 9.6-0.8 13.6zM663.2 142.857c-5.6-16-14.4-28-24.8-36.8s-23.2-12.8-36.8-12.8c-11.2 0-20.8 3.2-28.8 10.4s-12.8 16-14.4 26.4h-1.6c-5.6-12-12.8-20.8-23.2-27.2-9.6-6.4-21.6-9.6-35.2-9.6-20 0-36 7.2-47.2 20.8s-16.8 32-16.8 56c0 27.2 8 49.6 24 66.4s36.8 25.6 62.4 25.6c8.8 0 19.2-0.8 31.2-2.4 11.2-1.6 21.6-4 31.2-7.2l-4.8-94.4v-4.8c0-24 8.8-36 26.4-36 12 0 22.4 7.2 29.6 21.6 8 14.4 11.2 32.8 11.2 56 0 24-4.8 45.6-15.2 63.2-9.6 18.4-24 32-42.4 41.6s-39.2 14.4-62.4 14.4c-29.6 0-56-6.4-77.6-18.4-22.4-12-39.2-29.6-50.4-52.8-12-23.2-17.6-49.6-17.6-79.2 0-40.8 10.4-72 32-93.6s52.8-32.8 92.8-32.8c28 0 56.8 5.6 87.2 17.6v-26.4c-25.6-11.2-54.4-16.8-87.2-16.8-48.8 0-85.6 13.6-112.8 40-26.4 26.4-40 64-40 111.2 0 34.4 7.2 65.6 21.6 92.8s34.4 48 60.8 63.2c26.4 15.2 56.8 22.4 91.2 22.4 28.8 0 54.4-6.4 76.8-18.4s40-29.6 52-51.2c12-22.4 18.4-48 18.4-76.8-0.8-19.2-4-36.8-9.6-52zM480 218.057c-9.6-12-14.4-28.8-14.4-50.4 0-33.6 12.8-51.2 39.2-51.2 28 0 42.4 20.8 44.8 62.4l3.2 52c-9.6 2.4-20 4-31.2 4-18.4 1.6-32-4.8-41.6-16.8z" />
<glyph unicode="&#xe90b;" glyph-name="easypay" d="M654.4 216.457c11.2 48.8 17.6 92 20 136 1.6 24 13.6 27.2 31.2 24 16-2.4 34.4-2.4 29.6-29.6-22.4-128-50.4-254.4-95.2-376.8-11.2-29.6-28-19.2-44.8-12s-28 16.8-12.8 38.4c38.4 56 34.4 117.6 20.8 180-11.2 52-20 104.8-33.6 156-6.4 24.8 4 31.2 23.2 34.4s37.6 6.4 40.8-23.2c4.8-41.6 12.8-80.8 20.8-127.2zM812 667.657c11.2 46.4 15.2 86.4 20 126.4 3.2 32 15.2 39.2 46.4 30.4 13.6-4 17.6-10.4 15.2-24.8-20-128.8-51.2-254.4-93.6-377.6-9.6-28-24.8-23.2-43.2-15.2-17.6 8-30.4 16.8-15.2 40 44.8 65.6 28.8 136 15.2 205.6-8.8 44.8-16.8 89.6-28 133.6-6.4 24.8 9.6 28.8 24.8 30.4 14.4 1.6 35.2 10.4 38.4-17.6 4.8-41.6 12-82.4 20-131.2zM197.6 659.657c0-24 0.8-47.2 0-71.2-0.8-16 4.8-22.4 20.8-22.4 10.4 0 20.8-2.4 31.2 0 18.4 3.2 32 2.4 36-20 4-20.8-9.6-32.8-24.8-36-40.8-7.2-81.6-2.4-121.6 5.6-11.2 2.4-8.8 11.2-8 18.4 16 123.2 7.2 246.4 4 369.6 0 14.4 4.8 16.8 17.6 18.4 32 4.8 64.8 4 96.8 4.8 12 0 28 4 26.4-15.2-1.6-16-3.2-35.2-24.8-38.4-1.6 0-4 0-5.6 0-49.6-1.6-56.8-11.2-46.4-61.6 2.4-10.4 7.2-11.2 15.2-11.2 10.4 0 20.8 0 31.2 0 16.8 0 24-10.4 24-25.6 0-14.4-7.2-24.8-23.2-27.2-15.2-2.4-35.2 10.4-44-6.4-6.4-12-0.8-29.6-0.8-44.8 0-12 0-24.8 0-36.8-2.4 0-3.2 0-4 0zM631.2 841.257c13.6-4.8 23.2-11.2 29.6-22.4 8-12.8-4-16.8-9.6-23.2-28.8-27.2-35.2-57.6-18.4-95.2 12.8-28 22.4-58.4 29.6-88.8 11.2-46.4-6.4-88.8-41.6-108.8-15.2-8-27.2-6.4-38.4 5.6s-9.6 23.2 0.8 34.4c24.8 28 24.8 59.2 11.2 92.8-10.4 26.4-20 53.6-27.2 80.8-12.8 48 11.2 98.4 54.4 119.2 4 3.2 7.2 4.8 9.6 5.6zM478.4 776.457c-10.4 44.8-45.6 60.8-85.6 41.6-12-5.6-24-11.2-35.2-17.6-9.6-4.8-19.2-11.2-14.4-24 4-11.2 12.8-20 25.6-20 8 0 16 5.6 24 8 7.2 2.4 15.2 10.4 23.2 0.8 10.4-13.6 12-29.6 12.8-45.6 0-12-10.4-8.8-16.8-9.6-31.2-4.8-52-20.8-60.8-52-8.8-34.4-8.8-69.6 0-104 8.8-32 26.4-43.2 59.2-37.6 13.6 2.4 24 1.6 36.8-4 24.8-11.2 40-0.8 40.8 27.2 0.8 27.2 0 55.2 0 82.4 1.6 50.4 3.2 103.2-9.6 154.4zM431.2 587.657c0-6.4 0.8-14.4-8-15.2-8-1.6-15.2 0.8-18.4 9.6-7.2 19.2-8.8 38.4-1.6 58.4 3.2 8.8 8.8 18.4 20 16.8 12-1.6 6.4-13.6 7.2-20.8 0.8-6.4 0-12.8 0-20 0 0 0 0 0 0 0.8-9.6 0.8-19.2 0.8-28.8zM165.6 475.657c-24.8 2.4-36.8-4-36-32 1.6-60 0.8-119.2 0.8-179.2 0 0 0.8 0 0.8 0 0-59.2 1.6-117.6-0.8-176.8-0.8-27.2 14.4-28.8 33.6-28.8 20 0 33.6 4 31.2 30.4-4 33.6-2.4 68-3.2 102.4 0 9.6-1.6 18.4 12.8 20.8 48 7.2 72.8 39.2 79.2 84 16 112-19.2 169.6-118.4 179.2zM219.2 282.057c-3.2-9.6-8.8-18.4-19.2-17.6-15.2 1.6-8 14.4-8 22.4-0.8 17.6 0 36 0 53.6 0 20 0 40 0 59.2 0 5.6-1.6 13.6 4.8 14.4 4 0.8 10.4-3.2 14.4-7.2 3.2-3.2 6.4-7.2 7.2-12 12-36.8 12-75.2 0.8-112.8zM498.4 223.657c-1.6 36.8 0.8 74.4-12 109.6-10.4 30.4-41.6 49.6-65.6 40.8-18.4-7.2-36-16.8-54.4-25.6-12-5.6-18.4-15.2-12-27.2s16.8-20.8 32.8-15.2c6.4 2.4 12 5.6 17.6 8.8 21.6 10.4 26.4-8 27.2-20s21.6-31.2-10.4-36.8c-45.6-8-59.2-23.2-66.4-68.8-4.8-28-4-56.8 3.2-84.8 8.8-32.8 25.6-44 58.4-40 13.6 1.6 24.8 4 40-3.2 24-12 39.2-0.8 39.2 26.4 0 32 0 64.8 0 96.8 0.8 0 0.8 0 1.6 0 1.6 12.8 1.6 26.4 0.8 39.2zM431.2 121.257c-16.8-0.8-18.4 13.6-19.2 25.6 0 15.2-3.2 30.4 4 44.8 4 8 9.6 16 19.2 13.6 8.8-2.4 4.8-11.2 5.6-16.8 0.8-9.6 0-19.2 0-28.8 0 0 0 0 0.8 0 0-4.8 0.8-9.6 0-14.4-2.4-8 6.4-23.2-10.4-24z" />
<glyph unicode="&#xe90c;" glyph-name="liqpay" d="M18.4 862.857l365.6-424-365.6-424 100.8-87.2 441.6 511.2-441.6 511.2zM463.2 862.857l365.6-424-365.6-424 101.6-87.2 441.6 511.2-441.6 511.2z" />
<glyph unicode="&#xe90d;" glyph-name="stripe" d="M1024 431.657c0 72.8-35.2 130.4-102.4 130.4-68 0-108.8-57.6-108.8-129.6 0-85.6 48-128.8 117.6-128.8 33.6 0 59.2 8 78.4 18.4v56.8c-19.2-9.6-41.6-16-69.6-16-27.2 0-52 9.6-55.2 43.2h139.2c0 4 0.8 19.2 0.8 25.6zM883.2 458.857c0 32 20 45.6 37.6 45.6s36-13.6 36-45.6h-73.6zM703.2 562.057c-28 0-45.6-12.8-56-22.4l-4 17.6h-62.4v-332l71.2 15.2v80.8c10.4-7.2 25.6-17.6 50.4-17.6 51.2 0 97.6 40.8 97.6 131.2-0.8 82.4-47.2 127.2-96.8 127.2zM685.6 366.057c-16.8 0-26.4 5.6-33.6 13.6v105.6c7.2 8 17.6 13.6 33.6 13.6 25.6 0 44-28.8 44-66.4s-17.6-66.4-44-66.4zM483.2 578.857l71.2 15.2v57.6l-71.2-15.2zM483.2 557.257h71.2v-248.8h-71.2v248.8zM406.4 536.457l-4.8 20.8h-61.6v-248.8h71.2v168.8c16.8 21.6 45.6 17.6 54.4 14.4v65.6c-8.8 3.2-42.4 9.6-59.2-20.8zM264 618.857l-69.6-14.4v-228c0-42.4 31.2-72.8 73.6-72.8 23.2 0 40 4 49.6 9.6v57.6c-8.8-4-53.6-17.6-53.6 24.8v100.8h54.4v60.8h-54.4v61.6zM72 485.257c0 11.2 8.8 15.2 24 15.2 21.6 0 48.8-6.4 70.4-18.4v67.2c-24 9.6-47.2 12.8-70.4 12.8-57.6 0-96-30.4-96-80.8 0-78.4 108-65.6 108-100 0-12.8-11.2-17.6-27.2-17.6-24 0-53.6 9.6-77.6 22.4v-68c26.4-11.2 52.8-16 77.6-16 59.2 0 100 29.6 100 80-0.8 86.4-108.8 71.2-108.8 103.2z" />
<glyph unicode="&#xe90e;" glyph-name="2checkout" d="M1005.6 484.457c-16.8 41.6-57.6 71.2-105.6 71.2-63.2 0-113.6-51.2-113.6-113.6 0-63.2 51.2-113.6 113.6-113.6 48.8 0 89.6 30.4 106.4 72.8 0.8 12.8 1.6 24.8 1.6 38.4 0 14.4-0.8 29.6-2.4 44.8zM900 272.457c-93.6 0-169.6 76-169.6 169.6s76 169.6 169.6 169.6c31.2 0 60-8 84.8-22.4-63.2 200-251.2 345.6-472.8 345.6-273.6 0-496-222.4-496-496s222.4-496 496-496c224.8 0 413.6 148.8 475.2 353.6-25.6-15.2-55.2-24-87.2-24zM399.2 280.457h-228.8v43.2c0 0 123.2 104.8 148 131.2s36.8 68 4.8 92.8c-32 24.8-75.2 8-108-35.2l-39.2 28c0 0 38.4 73.6 132.8 63.2 93.6-10.4 109.6-112.8 60-166.4s-123.2-109.6-123.2-109.6h154.4v-47.2zM601.6 327.657c28 0 53.6 10.4 73.6 27.2l40-38.4c-30.4-27.2-70.4-44-114.4-44-92.8 0-168.8 76-168.8 169.6s76 169.6 169.6 169.6c45.6 0 86.4-17.6 116.8-47.2l-40.8-37.6c-20 18.4-47.2 29.6-76 29.6-63.2 0-113.6-51.2-113.6-113.6-0.8-64 50.4-115.2 113.6-115.2z" />
<glyph unicode="&#xe90f;" glyph-name="mercado" d="M1013.6 435.657c-76-16.8-150.4-40.8-221.6-71.2-24 20.8-163.2 142.4-197.6 168-18.4 13.6-29.6 20-40 23.2-8.8 2.4-22.4 5.6-43.2-0.8-20-6.4-40-22.4-59.2-38.4-18.4-14.4-37.6-29.6-52-32.8-24.8-5.6-49.6 0-57.6 10.4-3.2 4 1.6 9.6 2.4 9.6l44 47.2c34.4 34.4 68 67.2 143.2 69.6 51.2 1.6 102.4-23.2 103.2-23.2 95.2-46.4 193.6-28.8 273.6 4.8 0 0 0 0 0 0v0c-92.8 74.4-236 122.4-396.8 122.4-152.8 0-289.6-43.2-382.4-112 0 0 0-0.8 0-0.8 40.8-19.2 84-34.4 128-46.4 16-3.2 32-5.6 48-7.2 16 0 31.2 4 47.2 8.8 13.6 4 27.2 7.2 40.8 8.8-5.6-4.8-10.4-10.4-16-15.2l-44.8-48c-1.6-1.6-10.4-10.4-5.6-21.6 2.4-4.8 6.4-8.8 10.4-11.2 12.8-8.8 40.8-14.4 63.2-9.6 17.6 4 37.6 19.2 57.6 36 20 16 42.4 30.4 59.2 35.2 7.2 1.6 14.4 2.4 21.6 2.4 12-1.6 24-5.6 45.6-21.6 36.8-27.2 198.4-168.8 200-170.4 7.2-6.4 11.2-16.8 11.2-26.4-0.8-9.6-6.4-18.4-14.4-23.2-24-15.2-43.2-1.6-44-0.8 0 0-56 51.2-76 68-3.2 2.4-7.2 6.4-9.6 3.2s4.8-8.8 4.8-8.8l64.8-64.8c5.6-5.6 8.8-12 9.6-20 0-8.8-2.4-20-16.8-29.6-24-15.2-41.6-4.8-45.6-1.6-20 20-41.6 40.8-56 53.6-3.2 2.4-7.2 6.4-9.6 3.2-2.4-2.4 4.8-8.8 4.8-8.8l47.2-53.6c0 0 11.2-13.6 0.8-26.4 0 0 0 0 0.8 0-2.4-2.4-4.8-4.8-7.2-7.2-8.8-6.4-20.8-9.6-32-7.2-9.6 1.6-11.2 5.6-11.2 5.6s-24.8 25.6-45.6 43.2c-3.2 2.4-7.2 5.6-9.6 3.2s4.8-8.8 4.8-8.8l40.8-44.8c1.6-1.6 0-4-1.6-6.4-2.4-3.2-8-8-23.2-10.4-19.2-2.4-40.8 8.8-49.6 13.6 4.8 8 7.2 17.6 7.2 27.2 0 31.2-25.6 56.8-56.8 56.8-1.6 0-4 0-5.6 0 2.4 19.2-1.6 45.6-28 56.8-7.2 3.2-16 4.8-24 5.6-7.2 0-13.6-1.6-20-4-5.6 12.8-16 21.6-28.8 26.4-6.4 2.4-13.6 3.2-20.8 3.2-12.8 0-24.8-4-34.4-12-2.4 3.2-4.8 5.6-7.2 8.8-20 17.6-49.6 15.2-67.2-4-8 7.2-52.8 40-196 72-6.4 1.6-30.4 8-30.4 8-2.4-12.8-4-25.6-4-39.2 0.8-178.4 227.2-323.2 505.6-323.2s504.8 144.8 504.8 323.2c0 11.2-0.8 22.4-3.2 33.6zM475.2 180.457c-24.8-0.8-44.8 17.6-46.4 42.4 0 4.8-0.8 4.8-4 2.4-7.2-7.2-18.4-14.4-36.8-7.2-24.8 9.6-26.4 27.2-24.8 35.2 0 2.4 0 3.2-3.2 1.6-9.6-6.4-20.8-10.4-33.6-5.6-32.8 12.8-30.4 44.8-28.8 53.6 0 0 0 0.8 0 1.6-5.6-5.6-12-8.8-20-9.6-19.2-2.4-36.8 11.2-39.2 30.4s11.2 36.8 30.4 39.2c19.2 2.4 36.8-11.2 39.2-30.4 4.8 8 24.8 28.8 54.4 19.2 21.6-6.4 24-25.6 24.8-32.8 0-1.6 0.8-1.6 2.4-0.8 4.8 5.6 20 17.6 44.8 6.4 32-13.6 19.2-53.6 17.6-56-0.8-2.4-2.4-6.4-1.6-7.2 1.6-0.8 12 4.8 22.4 4.8 24 0 43.2-18.4 44-42.4 1.6-23.2-16.8-44-41.6-44.8z" />
<glyph unicode="&#xe910;" glyph-name="qiwi" d="M818.4 240.457c-8.8 39.2-27.2 69.6-52 92-8.8 9.6-19.2 16-32 23.2-6.4 3.2-10.4 5.6-18.4 8.8-13.6 4.8-30.4 11.2-52 8.8 11.2 5.6 27.2 5.6 44 5.6 13.6-1.6 25.6-5.6 36.8-8.8 9.6-5.6 20-11.2 29.6-16 24 71.2 14.4 169.6-12 232.8-25.6 66.4-63.2 120.8-112 164-48 44-105.6 78.4-182.4 93.6-37.6 8-85.6 7.2-120-0.8-36-9.6-66.4-25.6-92.8-44.8-24.8-21.6-48-44-64-74.4-5.6-5.6-8-15.2-12.8-21.6-3.2-8-7.2-16-11.2-24-5.6-17.6-12-33.6-15.2-53.6-8.8-36-10.4-84.8-4-123.2 4.8-41.6 16.8-75.2 29.6-108 8-15.2 15.2-31.2 24-45.6 8-14.4 18.4-27.2 28-40 21.6-24 45.6-46.4 72.8-64 56-36 120-64 207.2-68.8 1.6 3.2-2.4 10.4-3.2 15.2-1.6 5.6-1.6 11.2-3.2 16-1.6 12-1.6 25.6 0 36.8 3.2-0.8 3.2-5.6 5.6-8 1.6-2.4 2.4-5.6 5.6-6.4 2.4-6.4 7.2-9.6 9.6-15.2 8-8.8 14.4-19.2 24.8-24.8 8-8.8 19.2-14.4 29.6-20.8 11.2-5.6 20-12.8 32.8-16 21.6-11.2 50.4-15.2 80-20 28.8-4 57.6-8.8 84-15.2 24.8-8.8 49.6-16.8 69.6-29.6 10.4-6.4 20.8-12.8 30.4-20 4.8-4 10.4-6.4 14.4-11.2 5.6-2.4 8-8 14.4-9.6 16.8-16 33.6-32.8 48-51.2 5.6-11.2 14.4-19.2 18.4-32 4-4 4.8-11.2 8.8-16 0-6.4 6.4-13.6 0.8-18.4-8-0.8-6.4 7.2-9.6 11.2-2.4 4-5.6 8-8 12.8-12.8 13.6-24 28-38.4 40-13.6 12-27.2 24-44 33.6-30.4 21.6-65.6 38.4-107.2 48.8-40.8 12-85.6 16.8-138.4 12.8-23.2-3.2-44.8-7.2-64-14.4-20.8-4.8-44-8-66.4-11.2-89.6-5.6-188.8 16-255.2 48-35.2 16.8-68 36-96 60-15.2 11.2-27.2 24.8-40 38.4-12 14.4-24 28-32.8 44.8-12 14.4-18.4 33.6-28 50.4-6.4 19.2-15.2 36-20 57.6-6.4 19.2-10.4 41.6-12.8 65.6 0 6.4-3.2 19.2-3.2 29.6 0 0.8 0.8 1.6 0.8 3.2-0.8 9.6-2.4 24 0 32-0.8 21.6 3.2 48 8 68.8 4 21.6 9.6 41.6 16 60.8 6.4 20 15.2 37.6 23.2 56 5.6 8 9.6 16.8 14.4 24.8 4 8.8 10.4 15.2 14.4 24 4 2.4 4.8 8 8.8 11.2 1.6 4.8 6.4 7.2 8 12 3.2 3.2 6.4 6.4 8.8 11.2 3.2 3.2 6.4 6.4 8.8 11.2 12.8 12.8 24.8 27.2 38.4 39.2 13.6 12.8 28.8 24 42.4 36 8.8 4 15.2 11.2 24 15.2 6.4 6.4 16 8.8 23.2 15.2 18.4 8 33.6 18.4 53.6 24.8 16.8 8.8 37.6 14.4 56.8 20.8 41.6 10.4 84 18.4 136 16 1.6 0 3.2 1.6 3.2 0 99.2-3.2 171.2-32.8 232.8-72.8 60.8-40.8 108-95.2 141.6-162.4 32.8-67.2 52-158.4 36-254.4-8-43.2-20.8-81.6-36-116.8-8.8-16.8-16.8-34.4-27.2-48.8-4.8-8-9.6-16-15.2-23.2-1.6-4-4.8-8-8-11.2-1.6-1.6-3.2-4-4-5.6-0.8-0.8-0.8-1.6-2.4-2.4-2.4-3.2-3.2-3.2-4-1.6zM792.8 211.657c-12.8 4.8-15.2 20.8-20.8 32.8-0.8 4.8-1.6 11.2 0 15.2 0.8 0 0.8 0.8 2.4 0.8 3.2 2.4 6.4-0.8 11.2-2.4 6.4-7.2 10.4-16.8 12.8-27.2 0-8 0.8-16.8-5.6-19.2zM696.8 230.057c0 1.6 0.8 0.8 0.8 0 19.2-2.4 28-15.2 29.6-36-1.6-11.2-8-18.4-18.4-20.8-26.4-0.8-40.8 23.2-32 48 5.6 4.8 8.8 10.4 20 8.8z" />
<glyph unicode="&#xe911;" glyph-name="robokassa" d="M484.8 164.457c-40 0-76-0.8-112 0.8-6.4 0-14.4 11.2-18.4 19.2-21.6 39.2-40.8 80-63.2 119.2-7.2 10.4-18.4 17.6-32 19.2-40 2.4-79.2 0-119.2 1.6-20.8 0.8-29.6-6.4-28.8-28 0.8-36 0-72.8 0.8-108.8 0-16-4.8-24-22.4-23.2-20.8 0.8-41.6 0.8-62.4 0-15.2-0.8-22.4 4-22.4 20.8 0.8 156.8 0 312.8 0.8 469.6 0 45.6 32 76 78.4 76 86.4 0.8 172.8 0.8 259.2 0 63.2-0.8 113.6-36.8 134.4-96 20-54.4 22.4-114.4 7.2-170.4-12-41.6-33.6-76.8-70.4-99.2-20.8-13.6-20-24.8-9.6-44 24-42.4 44.8-85.6 67.2-128.8 4.8-8 7.2-15.2 12.8-28zM231.2 625.257c-32 0-64 0-96 0-16.8 0-24-6.4-24-23.2 0-50.4 0-100 0-150.4 0-14.4 5.6-22.4 21.6-22.4 52 0.8 104-1.6 155.2 0.8 56 3.2 91.2 32.8 96 77.6 1.6 20 1.6 40 0 59.2-4.8 42.4-19.2 56-61.6 56.8-30.4 2.4-60.8 1.6-91.2 1.6zM676 507.657c46.4-4.8 88-11.2 122.4 26.4 24.8 26.4 52 50.4 77.6 76 21.6 22.4 32.8 52 31.2 82.4 0 30.4 10.4 39.2 40.8 40 56 1.6 75.2-18.4 71.2-74.4-3.2-38.4-19.2-74.4-44-103.2-31.2-36.8-64.8-71.2-94.4-102.4l64-72c32-36 61.6-72.8 71.2-121.6 2.4-12.8 3.2-25.6 3.2-38.4 0-36-19.2-54.4-54.4-55.2-37.6-0.8-54.4 17.6-58.4 53.6-1.6 17.6-7.2 39.2-18.4 52-37.6 40-75.2 81.6-119.2 112.8-21.6 15.2-59.2 8-92 12 0-61.6 0-116.8 0-172 0-37.6-17.6-57.6-49.6-60.8-37.6-3.2-61.6 17.6-62.4 55.2s0 74.4 0 111.2v343.2c0 42.4 17.6 60.8 56 60.8 37.6 0 56-20 56-61.6 0.8-44.8 0-89.6 0-135.2-0.8-8.8-0.8-18.4-0.8-28.8z" />
<glyph unicode="&#xe912;" glyph-name="yandex_kassa" d="M651.234 803.569c-196.39 0-355.583-159.195-355.583-355.583s159.195-355.583 355.583-355.583v0c195.8 0 355.583 159.783 355.583 355.583s-159.783 355.583-355.583 355.583zM651.234 317.478c-72.072 0-132.759 60.753-132.759 132.759s60.753 132.788 132.759 132.788 132.788-60.753 132.788-132.788c-2.245-74.265-60.753-132.759-132.788-132.759zM293.416 702.309v-517.618h-126.121l-161.946 517.618z" />
<glyph unicode="&#xe913;" glyph-name="assist" d="M885.6 525.257c-39.2 172.8-191.2 302.4-373.6 302.4-168.8 0-311.2-110.4-363.2-264-39.2-23.2-74.4-67.2-113.6-115.2 351.2 290.4 712.8-286.4 982.4 151.2-30.4-38.4-85.6-60-132-74.4zM634.4 779.657c-156 23.2-301.6 12.8-411.2-160 74.4 184 276.8 211.2 411.2 160zM136 543.657c174.4 112 319.2-13.6 551.2-59.2-196.8 16-371.2 154.4-551.2 59.2zM268 603.657c52.8 80 141.6 132.8 244 132.8 137.6 0 253.6-96.8 284.8-226.4-182.4-26.4-308.8 110.4-528.8 93.6zM6.4 278.057c30.4 38.4 86.4 60 132 74.4 39.2-173.6 191.2-302.4 373.6-302.4 168.8 0 311.2 110.4 363.2 264 39.2 23.2 74.4 67.2 113.6 115.2-352-290.4-712.8 286.4-982.4-151.2zM111.2 386.857c174.4 112 319.2-13.6 551.2-59.2-196 16-370.4 155.2-551.2 59.2zM227.2 368.457c182.4 25.6 308.8-111.2 528.8-94.4-52.8-80-141.6-132.8-244-132.8-137.6 0-253.6 96.8-284.8 227.2zM388 123.657c156-23.2 301.6-12.8 411.2 160-74.4-184-276.8-210.4-411.2-160z" />
<glyph unicode="&#xe914;" glyph-name="payfast" d="M860 211.657c-37.6-23.2-79.2-42.4-124-58.4-40.8-16.8-91.2-29.6-146.4-36.8-21.6-3.2-43.2-6.4-65.6-8.8v0 0c-205.6-17.6-381.6 26.4-481.6 120.8-2.4 1.6-2.4 2.4-4 3.2 0-4-0.8-7.2-0.8-11.2-0.8-43.2 17.6-82.4 44-114.4 81.6-93.6 238.4-144.8 420.8-147.2 121.6-0.8 232 22.4 316.8 63.2 42.4 20.8 78.4 45.6 106.4 77.6 27.2 31.2 45.6 70.4 46.4 113.6 0 27.2-6.4 52.8-18.4 76-24.8-28.8-56-54.4-93.6-77.6zM501.6 340.457c-192-14.4-357.6 20.8-460.8 103.2 2.4-39.2 19.2-75.2 44-103.2 80.8-93.6 237.6-144.8 420-147.2 121.6-0.8 232 22.4 316.8 63.2 42.4 20.8 78.4 45.6 106.4 77.6 27.2 31.2 45.6 70.4 45.6 113.6 0.8 33.6-10.4 64.8-28 92-26.4-36-140-176-444-199.2zM507.2 427.657c121.6-0.8 232 21.6 316.8 63.2 42.4 20.8 78.4 45.6 106.4 77.6 27.2 31.2 45.6 70.4 45.6 113.6s-17.6 82.4-44 114.4c-81.6 92.8-238.4 143.2-420.8 146.4-121.6 0.8-232-21.6-316.8-62.4-42.4-20.8-78.4-45.6-106.4-77.6-27.2-31.2-45.6-70.4-46.4-113.6 0-43.2 18.4-83.2 44.8-114.4 81.6-93.6 238.4-144.8 420.8-147.2zM152 781.257c44 54.4 181.6 106.4 343.2 104 108-0.8 204-24 269.6-56.8 32.8-16 57.6-35.2 72-52.8 15.2-17.6 19.2-32 19.2-45.6s-5.6-28-20-45.6c-44-54.4-181.6-106.4-343.2-104-107.2 0.8-204 24-269.6 56.8-32.8 16-57.6 35.2-72 52.8s-19.2 32-19.2 46.4c0 12.8 4.8 27.2 20 44.8z" />
<glyph unicode="&#xe915;" glyph-name="iyzico" d="M3.2 497.257v-182.4c0 0 58.4-1.6 58.4 36.8v183.2c0 0-58.4 0.8-58.4-37.6zM533.6 497.257v-182.4c0 0 58.4-1.6 58.4 36.8v183.2c0 0-58.4 0.8-58.4-37.6zM240 509.257l-44.8-108.8-46.4 108c-16.8 37.6-68.8 23.2-68.8 23.2l84.8-201.6-42.4-100.8c51.2-12.8 65.6 20.8 65.6 20.8l118.4 281.6c-56 12.8-66.4-22.4-66.4-22.4zM511.2 534.857h-181.6c4-51.2 44.8-48 44.8-48h75.2l-99.2-95.2c-31.2-36-20.8-76.8-20.8-76.8h181.6c-0.8 48.8-43.2 48-43.2 48h-72.8l100.8 100.8c27.2 34.4 15.2 71.2 15.2 71.2zM796.8 352.457c-16 27.2-46.4 10.4-46.4 10.4-54.4-23.2-74.4 16.8-74.4 16.8-22.4 48 0 94.4 0 94.4 21.6 41.6 74.4 16 74.4 16 33.6-16 44.8 7.2 46.4 10.4v0c-20 22.4-48 36.8-79.2 36.8-59.2 0-107.2-48.8-107.2-110.4s48-110.4 107.2-110.4c31.2 0 60 14.4 79.2 36.8v-0.8zM920.8 354.857c-28 0-51.2 32-51.2 70.4s22.4 70.4 51.2 70.4c28 0 51.2-32 51.2-70.4s-23.2-70.4-51.2-70.4v0zM920.8 534.857c-57.6 0-103.2-48.8-103.2-110.4s46.4-110.4 103.2-110.4c57.6 0 103.2 48.8 103.2 110.4s-46.4 110.4-103.2 110.4v0zM32 591.657c16 0 28.8 12.8 28.8 28.8s-12.8 28.8-28.8 28.8-28.8-12.8-28.8-28.8c0-16 12.8-28.8 28.8-28.8zM561.6 591.657c16 0 28.8 12.8 28.8 28.8s-12.8 28.8-28.8 28.8c-16 0-28.8-12.8-28.8-28.8 0.8-16 12.8-28.8 28.8-28.8z" />
<glyph unicode="&#xe916;" glyph-name="linepay" d="M349.6 617.257h-48.8c-8.8 0-16-7.2-16-16v-324.8c0-8.8 7.2-16 16-16h48.8c8.8 0 16 7.2 16 16v324.8c0 8.8-7.2 16-16 16zM706.4 617.257h-48.8c-8.8 0-16-7.2-16-16v-194.4l-139.2 200c-2.4 3.2-4.8 4.8-8 6.4-3.2 2.4-6.4 4-11.2 4h-48.8c-8.8 0-16-7.2-16-16v-324.8c0-8.8 7.2-16 16-16h48.8c8.8 0 16 7.2 16 16v193.6l137.6-198.4c2.4-3.2 5.6-4.8 8.8-6.4 3.2-3.2 7.2-4.8 12-4.8h48.8c8.8 0 16 7.2 16 16v324.8c0 8.8-7.2 16-16 16zM225.6 341.257h-144v260c0 8.8-7.2 16-16 16h-49.6c-8.8 0-16-7.2-16-16v-324.8c0-8.8 7.2-16 16-16h48.8c0 0 0.8 0 0.8 0h159.2c8.8 0 16 7.2 16 16v48.8c0.8 8.8-6.4 16-15.2 16zM1008 536.457c8.8 0 16 7.2 16 16v48.8c0 8.8-7.2 16-16 16h-208.8c-8.8 0-16-7.2-16-16v-324.8c0-8.8 7.2-16 16-16h48.8c0 0 0.8 0 0.8 0h159.2c8.8 0 16 7.2 16 16v48.8c0 8.8-7.2 16-16 16h-144v56.8h144c8.8 0 16 7.2 16 16v48.8c0 8.8-7.2 16-16 16h-144v56.8h144z" />
<glyph unicode="&#xe917;" glyph-name="zopim" d="M627.2 529.257l242.4 254.4c2.4 2.4 4.8 4 7.2 5.6-91.2 95.2-220 154.4-362.4 154.4-278.4 0-504-226.4-504-504.8s225.6-504.8 504.8-504.8c255.2 0 465.6 189.6 499.2 435.2-410.4-51.2-387.2 160-387.2 160z" />
<glyph unicode="&#xe918;" glyph-name="7_connect" d="M431.2 501.257h259.2v-550.4h-259.2v550.4zM689.6 927.657h-580v-259.2h309.6c40 125.6 142.4 224 270.4 259.2zM690.4 501.257h-259.2c0 235.2 177.6 426.4 395.2 426.4v-259.2c-74.4 0-136-75.2-136-167.2z" />
<glyph unicode="&#xe919;" glyph-name="tawkto" d="M994.4 622.057c0 11.2 0 19.2 0 27.2-0.8 1.6-1.6 3.2-1.6 4.8 0.8-1.6 1.6-3.2 1.6-4.8 0 107.2-111.2 210.4-221.6 206.4-5.6 10.4-41.6 36-52 40.8-48.8 25.6-98.4 22.4-149.6 9.6-41.6 32.8-88 48.8-140.8 44-30.4-2.4-47.2-20.8-43.2-45.6 0 0 0 0 0 0 4.8-15.2 16.8-17.6 29.6-18.4 0 0 0 0 0 0-2.4-9.6-12-10.4-18.4-14.4-14.4-9.6-27.2-20.8-29.6-39.2 0 0 0 0 0 0s0 0 0 0c-3.2-16 4.8-24.8 18.4-29.6 0 0 0 0 0 0-16-20-35.2-39.2-28-68.8 9.6-28 17.6-28.8 53.6-9.6 0 0 0 0 0 0s0 0 0 0c-1.6-24.8-12-48.8-9.6-73.6 0 0 0 0 0 0s0 0 0 0c-3.2-50.4-7.2-99.2-10.4-148-5.6-9.6-32.8-104.8-37.6-144.8v0 0c-4-18.4-8-36.8-11.2-55.2-13.6-81.6-24-163.2-43.2-244-3.2-12-6.4-19.2-20-20-32-0.8-63.2-4-95.2-3.2-40.8 0.8-82.4 4.8-122.4-6.4-33.6-9.6-41.6-30.4-26.4-60.8 12.8-24.8 36.8-33.6 61.6-38.4 61.6-10.4 117.6 8.8 171.2 36 0 0 0 0 0 0s0 0 0 0c10.4 0.8-14.4-33.6 14.4-15.2 30.4 13.6 57.6 32.8 84 52.8 15.2 0 30.4 0 45.6 0v0 0c-1.6-7.2-2.4-14.4-4.8-23.2 14.4 8.8 20.8 24 36 27.2 22.4-2.4 44 3.2 65.6 6.4 0 0 0 0 0 0s0 0 0 0c20-8 30.4-25.6 44-40 11.2-11.2 22.4-21.6 39.2-9.6 1.6 1.6 3.2 3.2 4.8 5.6 3.2 1.6 7.2 3.2 10.4 4.8 23.2-6.4 30.4 8.8 33.6 26.4 2.4 15.2-3.2 28.8-9.6 41.6 29.6 15.2 60 30.4 84.8 53.6 47.2 43.2 74.4 96.8 84.8 159.2 14.4 84.8 6.4 167.2-17.6 249.6 2.4 14.4-4 34.4 20.8 36.8 0 0 0 0 0 0s0 0 0 0c38.4-1.6 74.4 4 103.2 33.6 0 0 0 0 0 0 13.6 10.4 19.2 25.6 22.4 41.6-73.6-8.8-73.6-8.8-106.4 4 0 0 0 0 0 0s0 0 0 0c-1.6 4-3.2 8.8-4.8 12.8 59.2-5.6 117.6 22.4 174.4-12zM479.2 365.257c0 0 0 0 0 0 0-0.8 0-0.8 0 0 0 0 0 0 0 0zM430.4 546.057c0 0 0 0 0 0s0 0 0 0 0 0 0 0zM752 739.657c4.8-43.2-37.6-89.6-86.4-94.4-27.2-2.4-51.2 9.6-70.4 28.8-12.8 24-19.2 48.8-12 76.8 9.6 38.4 32 64.8 71.2 75.2 47.2 7.2 92-32.8 97.6-86.4zM676.8 779.657c-20.8 0-37.6-12-40.8-35.2-4.8-29.6 4-49.6 24-57.6 23.2-8.8 47.2-0.8 63.2 22.4 5.6 12.8 5.6 19.2 4.8 29.6 0 10.4-9.6 40.8-51.2 40.8zM674.4 751.657c0 0 0 0 0 0s0 0 0 0 0 0 0 0z" />
<glyph unicode="&#xe91a;" glyph-name="Payme" d="M811.326 463.994c13.312 22.914 4.522 42.149-2.595 61.506-31.847 86.621-63.044 173.489-95.856 259.743-9.93 26.104-8.234 37.707 23.934 37.326 56.271-0.667 56.151 0.698 75.091-53.469 16.373-46.825 33.104-93.525 51.871-146.468 20.378 56.394 38.992 107.796 57.522 159.228 12.675 35.181 59.761 54.642 94.021 39.278 12.815-5.747 8.473-15.112 5.551-23.315-25.151-70.603-47.173-142.617-77.262-211.074-25.065-57.024-70.187-98.641-132.277-122.755zM823.938 371.481c-2.616-1.251-5.81-2.498-9.1-3.528l-0.539-0.146c-72.834-17.266-86.955-7.092-90.318 64.852 2.633 2.025 5.535 6.187 7.887 5.896 64.641-7.999 116.476 19.036 163.895 58.844 2.27 1.905 24.802 24.574 16.105 3.401-20.041-52.837-38.923-100.727-87.93-129.321zM225.199 944.125c-25.039-13.2-51.92-4.64-77.84-5.52-44.959-1.44-96.080-1.68-141.039-1.44 5.039 10.72 22.24 9.76 31.199 9.6q93.841-1.080 187.68-2.64zM88.24 499.245c-26.48-6.4-58.080-15.040-84.080 7.52-0.32 37.44-0.721 74.8-0.961 112.24 0 0.8 1.762 2.48 2.16 2.32 1.711-0.82 3.18-1.726 4.543-2.766l-0.062 0.046c24.080-15.68 46.48-34 73.76-44.32 9.287-1.981 16.151-10.115 16.151-19.853 0-0.869-0.055-1.726-0.161-2.567l0.010 0.1c-0.639-24.48 7.361-48.080-11.36-52.72zM586.258 505.89l84.899 0.402c-12.51-6.271-27.259-9.942-42.864-9.942-15.282 0-29.741 3.52-42.612 9.794l0.577-0.254zM953.956 217.728c-41.481 56.94-84.131 107.12-130.193 153.932l0.176-0.179c-14.485 10.417-28.46-0.535-42.632-1.273-33.927-1.768-38.863-7.827-41.307 25.303-0.633 8.567-28.319 4.22-53.974 4.372-191.317 1.138-382.646 0.64-573.97 0.571-2.789 0.070-6.072 0.11-9.365 0.11-11.374 0-22.636-0.478-33.768-1.416l1.454 0.099c-53.231-5.653-69.13-21.462-69.661-75.263q-1.543-156.515 0.102-313.056c0.525-54.29 15.692-69.239 69.709-74.759 7.499-0.647 16.227-1.016 25.041-1.016 2.192 0 4.38 0.023 6.561 0.068l-0.326-0.005c209.878-0.051 419.756 0.349 629.631-0.425 34.711-0.128 64.745 9.837 88.236 33.756 45.453 46.283 90.31 93.308 132.764 142.322 31.833 36.753 31.077 67.737 1.524 106.86zM518.087 37.331c0.268-20.664-9.039-27.513-28.958-25.812-4.083 0.368-8.832 0.578-13.629 0.578-5.905 0-11.737-0.318-17.477-0.938l0.711 0.062c-38.28-4.001-25.227 26.904-25.463 79.582-0.15 33.349-0.15 33.349-1.271 88.041-0.579 28.228 7.734 72.358-36.438 76.33-25.125 2.259-59.414-30.048-59.941-57.159-0.971-49.895-2.699-99.973 0.449-149.687 2.427-38.334-19.052-36.627-45.383-36.931-27.157-0.313-46.985-0.075-44.567 37.533 3.27 50.863 1.216 102.102 0.6 153.169-0.291 24.122 2.61 51.765-33.563 53.596-27.252 1.38-58.518-28.062-59.026-56.975-0.877-49.899-2.607-99.968 0.449-149.693 2.609-42.443-24.225-35.745-49.5-36.615-37.15-1.278-41.995 33.38-41.27 60.734 0.094 2.622 0.148 5.703 0.148 8.796 0 6.909-0.268 13.755-0.793 20.53l0.056-0.898c-5.853 71.067 23.655 127.705 76.587 175.289 3.454 3.901 6.469 8.318 8.89 13.087l0.164 0.356-0.25-0.115-0.003-0.003c-0.027 0.1-0.046 0.219-0.073 0.322-32.891-10.266-56.072-34.059-83.182-62.582-0.999 10.031-1.568 21.682-1.568 33.466 0 2.337 0.022 4.669 0.067 6.996l-0.005-0.349c1.121 14.171-2.846 34.801 8.95 40.512 20.814 10.077 47.564 15.364 73.454-1.961 2.917-1.952 0.875-10.601 2.285-16.082 0.199 0.062 0.378 0.152 0.578 0.213v0c-0.088-0.134-0.165-0.282-0.252-0.418 25.093 10.62 46.801 28.274 76.184 29.98 42.703 2.481 78.659-5.804 100.141-49.255 25.288 23.288 48.898 46.82 85.093 49.198 62.766 4.124 104.032-28.716 106.623-91.403 2.634-63.737 0.359-127.665 1.184-191.497zM816.089 145.686c-26.654 0.425-53.321 0.111-79.983 0.063-24.343-0.048-48.735-0.988-73.016 0.242-20.302 1.028-27.084-4.752-20.857-25.665 6.443-21.648 17.638-38.931 39.544-44.296 24.052-5.89 50.053-7.3 66.658 16.036 14.181 19.928 32.305 24.335 54.331 22.291 10.055-0.933 22.686 2.811 27.769-8.967 4.578-10.61-3.321-20.1-8.856-28.732-30.931-48.248-93.592-70.373-156.911-55.797-54.141 13.736-95.156 57.711-104.358 112.479l-0.114 0.821c-15.801 106.89 49.963 188.559 149.325 183.694 78.264-3.832 127.466-61.355 132.422-146.724 0.921-15.884-8.196-25.728-25.954-25.444zM225.219 944.133c-14.535-5.174-29.574-2.035-44.369-2.512-56.135-1.809-112.645 7.511-168.719 1.588-13.117-8.955-8.965-27.069-9.018-39.305-0.277-63.631-0.188-127.265-0.113-190.898 0.059-48.748 47.664-109.6 97.434-123.674 0 7.2-0.037 14.094 0.008 20.987 0.301 46.781 2.473 49.155 49.389 48.995 1.67-0.021 3.642-0.034 5.617-0.034 26.058 0 51.621 2.121 76.524 6.201l-2.718-0.367c83.578 13.96 128.023 64.864 126.719 146.535-1.237 77.314-45.565 122.229-130.754 132.484zM209.086 742.116c-29.473-7.887-59.639-3.98-89.523-4.559-16.529-0.32-21.728 10.83-22.273 24.835-0.582 14.966-0.131 29.973-0.131 44.961 0.223 73.251-6.897 63.686 64.896 64.051 14.766-0.217 29.055-1.374 43.058-3.416l-1.773 0.212c32.312-3.951 48.711-22.371 50.234-55.079 1.916-41.104-10.572-61.932-44.488-71.007zM672.832 741.8c-1.475 39.319-21.994 63.491-55.775 75.629-26.992 10.062-58.178 15.884-90.725 15.884-32.263 0-63.19-5.722-91.821-16.205l1.854 0.594c-28.279-9.13-49.835-31.665-57.424-59.92l-0.138-0.604c-2.328-8.415-5.613-18.111 5.137-24.829 15.738-9.835 68.043-0.139 78.543 14.984 13.939 19.207 36.315 31.554 61.575 31.554 11.019 0 21.489-2.349 30.937-6.575l-0.481 0.192c22.758-10.25 29.521-29.072 25.613-51.488-3.869-22.186-22.871-19.416-38.881-19.149-4.463 0.213-9.693 0.334-14.952 0.334-36.301 0-71.253-5.776-103.987-16.459l2.369 0.669c-44.197-15.355-71.090-62.811-65.082-111.294 5.898-47.59 37.424-78.179 87.549-83.677 41.152-4.514 82.121-2.435 116.42 23.29 17.059 12.796 16.758-2.103 22.695-8.839 12.437-2.353 26.743-3.699 41.364-3.699 15.397 0 30.445 1.493 45.007 4.341l-1.473-0.24c8.832 78.453 4.625 156.932 1.676 235.508zM515.307 548.682c-38.994-1.034-60.336 15.056-60.18 45.369 0.172 33.256 28.492 50.644 83.912 51.521 35.049 0.554 43.363-8.047 43.93-45.453 0.483-31.582-24.119-50.283-67.662-51.437zM698.657 195.177c-3.163-0.208-6.856-0.327-10.578-0.327-4.782 0-9.519 0.196-14.202 0.58l0.615-0.041c-11.892 1.706-29.537-7.318-34.472 6.117-5.114 13.924 6.182 28.445 16.418 39.482 10.887 11.987 26.534 19.483 43.932 19.483 24.977 0 46.346-15.45 55.072-37.314l0.141-0.4c8.839-20.997 5.168-30.013-18.924-27.784-12.566 1.163-25.328 0.205-38.002 0.203z" />
<glyph unicode="&#xe91b;" glyph-name="gestpay" d="M116 831.343h908v-169.6h-777.6c-15.2 0-26.4-6.4-32.8-20s-9.6-30.4-9.6-52v-293.6c0-21.6 4-38.4 11.2-52 8-13.6 17.6-20 28.8-20h532c11.2 0 21.6 6.4 30.4 20s13.6 30.4 13.6 52v12.8c-1.6 18.4-5.6 31.2-12.8 38.4s-16.8 11.2-29.6 11.2h-394.4v170.4h525.6c30.4 0 57.6-15.2 80.8-46.4s34.4-72.8 34.4-124.8v-132.8c0-28-3.2-52-9.6-72.8s-15.2-38.4-25.6-52.8c-10.4-14.4-23.2-25.6-37.6-32.8s-28.8-11.2-43.2-11.2h-792c-15.2 0-29.6 4-44 11.2-13.6 7.2-26.4 18.4-36.8 32.8s-19.2 32-25.6 52.8c-6.4 20-9.6 44-9.6 72v437.6c0 26.4 3.2 50.4 9.6 72s15.2 39.2 25.6 53.6c10.4 14.4 23.2 25.6 36.8 32.8 14.4 7.2 28.8 11.2 44 11.2z" />
<glyph unicode="&#xe91c;" glyph-name="epaybg" d="M288 527.657c-44.8 0-52.8-37.6-52.8-99.2h99.2c0 64.8-8 99.2-46.4 99.2zM705.6 642.057h-36.8v-158.4h39.2c56.8 0 70.4 35.2 70.4 76 0 47.2-15.2 82.4-72.8 82.4zM877.6 950.857h-731.2c-80.8 0-146.4-65.6-146.4-146.4v-730.4c0-81.6 65.6-147.2 146.4-147.2h730.4c80.8 0 146.4 65.6 146.4 146.4v731.2c0.8 80.8-64.8 146.4-145.6 146.4zM285.6 215.657c35.2 0 46.4 26.4 49.6 84h127.2c-2.4-113.6-64-168.8-177.6-168.8-172.8 0-186.4 120.8-186.4 257.6 0 128.8 37.6 224 186.4 224 170.4 0 182.4-107.2 182.4-263.2h-232v-28c0-71.2 10.4-105.6 50.4-105.6zM732 378.857h-62.4v-236h-142.4v604h220c149.6 0 178.4-108 178.4-184 0-108-52-184-193.6-184z" />
<glyph unicode="&#xe91d;" glyph-name="mollie" d="M1024 473.257v-364h-138.4v369.6c-0.8 83.2-68 150.4-152 152-84.8 0-154.4-72-154.4-156.8v-364.8h-138.4v368c-0.8 83.2-68 151.2-151.2 152-84.8 0.8-154.4-70.4-154.4-156v-364h-135.2v369.6c0 160 129.6 289.6 289.6 289.6 88.8 0 168-40 221.6-103.2 56.8 68 142.4 105.6 230.4 103.2 157.6-4.8 282.4-136.8 282.4-295.2z" />
<glyph unicode="&#xe91e;" glyph-name="braintree" d="M72.72 950.857c149.2-0.72 298.4 1.76 447.28-2.88 71.7-1.257 140.368-12.101 205.454-31.3l-5.454 1.38c109.040-33.28 167.040-114.4 173.28-228.8 5.52-101.36-36.8-177.44-128-225.28-3.558-2.455-6.671-5.086-9.508-7.988l-0.012-0.012c25.28-12.32 49.68-22.32 72-35.52 149.12-86.8 165.76-297.36 32-407.36-79.2-65.36-173.84-84-272.56-84.96-171.76-1.68-343.6-0.48-515.44-0.48v151.2h116v720h-115.040zM356.96 367.337v-288c17.6 0 32 0 46.72 0 66.48 0 133.2-2.88 199.28 2.32 42.027 2.995 80.819 14.1 115.735 31.756l-1.735-0.796c41.15 21.648 68.73 64.11 68.73 113.014 0 47.691-26.23 89.256-65.050 111.056l-0.641 0.331c-25.76 14.96-56.64 27.76-85.68 28.96-91.2 3.68-182.8 1.36-277.36 1.36zM356.96 790.617v-276.8c95.28 0 184-7.2 272 9.040 82.56 15.2 119.040 107.52 91.040 182.4-20.72 56-67.6 80-120.8 84-79.2 5.36-158.8 1.6-242.24 1.6z" />
<glyph unicode="&#xe91f;" glyph-name="platron" d="M509.92 950.857c81.36-0.133 158.193-19.38 226.291-53.49l-2.931 1.33c10.64-4.96 21.36-10.48 32-16.72l-47.28-42.080-70.72 74.48-119.28-106.48-71.36 77.44-223.36-200.72 142.72-157.76-56-49.52 140.8-157.52-56-49.12 200.8-223.12 119.12 109.84 105.36-119.12c-19.599-15.359-41.611-30.15-64.674-43.309l-2.686-1.411c-72.648-41.962-159.795-66.72-252.724-66.72-282.77 0-512 229.23-512 512s229.23 512 512 512c0.086 0 0.172 0 0.258 0h-0.014zM416.8 471.257l121.76 109.52 109.44-121.76-121.76-109.44-109.44 121.68zM503.2 260.937l121.76 109.44 109.84-121.76-121.76-109.84-109.84 122.16zM329.68 679.017l121.76 109.84 109.44-122.080-121.76-109.44-109.44 121.68zM553.040 738.297l91.28 81.84 82.24-91.2-91.2-82.24-82.32 91.6zM715.44 361.497l91.2 82.24 82.24-91.2-91.2-82.32-82.24 91.28zM795.44 177.177l91.6 82.24 81.92-91.6-91.2-82.24-82.32 91.6zM832.32 599.737l61.040 54.72 54.8-60.64-60.72-54.8-55.12 60.72zM754.48 780.697l61.12 54.72 54.72-60.64-60.72-55.12-55.12 61.040zM910.16 418.777l61.040 55.12 54.72-61.040-61.040-54.72-54.72 60.64zM637.2 554.297l91.28 82.32 82.24-91.2-91.2-82.32-82.32 91.2z" />
<glyph unicode="&#xe920;" glyph-name="Bepaid" d="M0 62.857c2.4 35.2 4 93.6 4 147.2v616h132v-312h2.4c32 50.4 89.6 84 168 84 128 0 219.2-106.4 218.4-265.6 0-188-119.2-281.6-237.6-281.6-68 0-128 25.6-165.6 90.4h-2.4l-6.4-78.4h-112.8zM136.8 278.857c0-10.4 0.8-21.6 3.2-31.2 13.6-52.8 60-92.8 116.8-92.8 83.2 0 133.6 66.4 133.6 172 0 92.8-44 168-132 168-53.6 0-102.4-38.4-117.6-96.8-2.4-9.6-4-21.6-4-34.4v-84.8zM536.8 778.057c47.2 8.8 112.8 15.2 202.4 15.2 96.8 0 168-20.8 213.6-59.2 43.2-35.2 71.2-92.8 71.2-160 0-68.8-21.6-125.6-62.4-164.8-52.8-52.8-135.2-77.6-228.8-77.6-24.8 0-47.2 0.8-64.8 4v-272.8h-131.2v715.2zM668 440.457c16-4 37.6-5.6 64.8-5.6 99.2 0 159.2 48 159.2 133.6 0 80.8-56 124-147.2 124-36.8 0-62.4-3.2-76-6.4v-245.6z" />
<glyph unicode="&#xe921;" glyph-name="effect" d="M724.474 950.857c0.385-1.99 0.605-4.278 0.605-6.617 0-20.141-16.327-36.468-36.468-36.468-0.865 0-1.723 0.030-2.574 0.089l0.115-0.006-306.17 0.394c-0.757 0.021-1.648 0.033-2.542 0.033-53.721 0-97.27-43.549-97.27-97.27 0-18.836 5.354-36.422 14.623-51.318l-0.239 0.412 163.029-286.86c-0.551 1.278-1.006 2.502-1.535 3.768 1.574-2.952 3.12-5.892 4.843-8.908l14.645-25.768-105.19 0.136c-0.525 0.015-1.144 0.023-1.764 0.023-37.318 0-67.571-30.252-67.571-67.571 0-13.084 3.719-25.299 10.157-35.647l-0.166 0.287 113.249-199.269c-0.384 0.889-0.7 1.74-1.068 2.619 1.093-2.051 2.169-4.095 3.367-6.191l115.228-202.732c2.654-4.272 7.321-7.075 12.643-7.075 8.192 0 14.834 6.641 14.834 14.834 0 1.050-0.109 2.075-0.317 3.064l0.017-0.097-61.353 305.867c-0.339 1.6-0.534 3.438-0.534 5.321 0 14.169 10.996 25.771 24.92 26.736l0.084 0.005c3.393-0.077 7.392-0.12 11.401-0.12 15.126 0 30.107 0.622 44.918 1.842l-1.942-0.129c53.724 7.097 35.217 125.389 26.483 171.212l0.050 0.045-35.407 176.516c-0.498 2.329-0.783 5.006-0.783 7.749 0 19.75 14.791 36.045 33.9 38.413l0.188 0.019c8.846-0.114 58.402-0.611 80.198 2.271 91.167 12.040 37.83 246.614 33.397 270.389z" />
<glyph unicode="&#xe922;" glyph-name="Epsilon" d="M898.863 797.241c0 34.199-0.143 67.765-0.143 102.84 0 38.953-2.090 50.776-37.735 50.776-83.054 0-161.304-0.842-242.973-0.842-0.989 0.008-2.158 0.012-3.328 0.012-81.892 0-158.757-21.521-225.249-59.216l2.27 1.184c-179.302-101.88-283.498-299.669-265.75-513.671 21.28-256.592 262.272-451.351 499.273-451.351 27.905 0 55.212 0.474 82.848 0.474 52.641 0 100.104-0.472 152.634-0.472 34.493 0 29.648 6.302 29.648 82.274 0 9.702-0.252 16.094-0.252 24.244 0 77.754 4.897 85.29-22.012 85.29q-128.282-1.896-256.61-0.263c-100.742 1.354-179.589 45.304-234.815 129.136-44.539 67.609-54.209 144.091-49.627 223.061 9.772 168.427 135.81 287.315 304.162 287.323 78.961 0.004 157.936 0.849 236.872-0.507 26.653-0.458 30.786 7.982 30.786 39.708zM855.613 547.925c-127.519-1.399-255.062-0.63-382.597-0.629-87.264 0-100.378-28.808-100.378-104.663 0-46.739 21.293-89.356 48.237-89.356 72.29 0 144.61 0.647 216.925 0.647 72.312 0 144.645 0.924 216.93-0.517 24.273-0.484 33.32 3.915 33.32 31.491 0 43.258-0.129 83.734-0.129 130.1 0 25.433-6.021 33.215-32.308 32.927z" />
<glyph unicode="&#xe923;" glyph-name="Click" d="M1014.614 466.159c-16.082 90.171-54.303 169.473-108.837 234.661l0.64-0.786c-74.562 91.809-167.176 165.891-272.779 217.502l-4.75 2.096c-36.993 19.571-80.862 31.061-127.414 31.061-4.005 0-7.991-0.085-11.955-0.253l0.566 0.019c-90.353 4.795-275.234-164.487-275.234-164.487-60.382-56.371-119.309-114.083-160.314-187.014-26.231-46.655-45.24-95.875-46.464-150.213-1.619-71.816 24.024-135.688 62.297-194.348 56.136-83.856 121.788-155.703 196.711-216.58l1.787-1.406c49.352-41.139 107.358-73.939 170.66-95.204l3.768-1.098c38.754-12.637 78.274-18.388 118.678-7.524 3.639 0.277 6.904 0.702 10.112 1.287l-0.585-0.089c44.048 9.928 82.014 32.518 118.588 57.708 82.167 56.407 153.199 120.519 214.884 192.845l1.258 1.512c30.757 35.634 58.062 75.742 80.505 118.787l1.642 3.46c18.536 34.199 29.432 74.875 29.432 118.095 0 14.113-1.162 27.954-3.395 41.434l0.2-1.465zM196.499 192.922c0.061 0.005 0.131 0.007 0.203 0.007 0.718 0 1.372-0.274 1.864-0.724l-0.002 0.002c-0.488 0.447-1.142 0.721-1.859 0.721-0.072 0-0.143-0.003-0.214-0.008l0.009 0.001zM199.172 190.099v0c0.743-0.104 1.397-0.425 1.911-0.895l-0.003 0.002c-0.512 0.468-1.166 0.789-1.89 0.891l-0.019 0.002zM326.714 788.776c76.721 37.579 133.147 44.176 133.147 44.176 5.618-1.102 12.062 2.632 16.926-2.888-7.942-5.716-17.77-5.309-26.586-8.19-33.612-10.058-40.535-16.289-72.248-33.458-72.459-44.989-133.562-100.713-183.073-165.741l-1.201-1.645c-44.239-59.618-75.058-125.597-83.168-200.586-11.786 41.077-5.975 81.107 9.301 119.774 34.307 86.833 91.635 156.607 163.193 215.34 14.135 11.602 29.119 22.172 43.709 33.217zM692.628 110.165c-2.81-2.334-5.558-4.756-8.343-7.126 2.785 2.37 5.532 4.792 8.343 7.126l2.399 2.562zM694.77 112.437l3.018 3.036-0.241-0.248c2.446 2.537 19.29 19.141 22.575 22.555 43.652 45.36 89.67 88.604 125.163 141.199 22.513 30.93 40.863 66.749 53.192 105.261l0.738 2.67c0.923 2.184 2.013 4.067 3.304 5.791l-0.051-0.071c0.011-0.638 0.017-1.39 0.017-2.144 0-23.603-6.131-45.775-16.888-65.008l0.347 0.675c-42.239-74.451-99.889-135.784-163.545-191.984-3.361-2.967-13.165-10.767-13.165-10.767-1.006-0.999-2.328-1.682-3.334-2.681-3.3-2.965-6.939-5.699-10.808-8.099l-0.328-0.189zM902.534 415.221l0.023-0.419zM808.517 600.031c0.424-0.021 0.822-0.105 1.194-0.245l-0.027 0.009c-0.344 0.13-0.742 0.215-1.157 0.235h-0.009zM811.102 597.099v0c0.427-0.017 0.829-0.103 1.202-0.249l-0.025 0.009c-0.348 0.137-0.75 0.224-1.17 0.241h-0.007zM808.074 602.898c-0.266 0.537-0.622 0.991-1.053 1.36l-0.006 0.005c0.437-0.374 0.793-0.828 1.048-1.34l0.011-0.025zM622.789 180.096c-57.591-37.645-115.454-40.704-174.312-5.362-85.194 51.156-144.621 123.336-172.639 219.416-9.795 33.59-3.491 66.944 9.954 98.596 28.918 70.468 78.78 127.438 141.76 164.508l1.577 0.858c37.318 23.232 82.16 37.87 130.241 40.12l0.611 0.023c0.545 0.010 1.187 0.016 1.83 0.016 17.831 0 34.602-4.537 49.223-12.519l-0.538 0.269c72.654-38.461 131.473-94.548 172.131-162.723l1.098-1.988c16.219-25.752 25.842-57.075 25.842-90.645 0-2.063-0.036-4.118-0.108-6.164l0.008 0.297c-4.754-46.784-23.13-88.556-51.044-122.112l0.297 0.367c-38.595-47.797-83.439-88.516-133.745-121.608l-2.186-1.35zM315.871 213.171l-2.283 2.176c-0.916 2.114-2.892 3.612-5.24 3.828l-0.025 0.002-0.017-0.181c0.009 0.080 0.014 0.172 0.014 0.265 0 1.345-1.090 2.435-2.435 2.435-0.135 0-0.267-0.011-0.396-0.032l0.014 0.002 0.033 0.095c0.009 0.079 0.014 0.17 0.014 0.262 0 1.349-1.094 2.443-2.443 2.443-0.132 0-0.261-0.010-0.387-0.030l0.014 0.002 0.035 0.089c0.008 0.075 0.013 0.163 0.013 0.252 0 1.358-1.101 2.458-2.458 2.458-0.126 0-0.25-0.010-0.372-0.028l0.014 0.002 0.039 0.083c0.008 0.072 0.012 0.156 0.012 0.241 0 1.365-1.107 2.472-2.472 2.472-0.123 0-0.243-0.009-0.361-0.026l0.013 0.002 0.281 0.371c-1.177 3.358-3.505 6.062-6.501 7.696l-0.073 0.036c-1.498 3.575-4.439 6.291-8.075 7.455l-0.092 0.025c-0.57 3.587-2.719 6.579-5.699 8.284l-0.057 0.030c-8.983 11.557-18.948 22.488-26.781 34.778-35.226 55.268-58.82 114.169-53.625 181.465 11.693 38.875 33.655 72.342 56.352 105.226 44.89 65.036 106.123 112.285 171.309 155.020 10.988 7.989 23.467 15.395 36.619 21.611l1.423 0.605c1.144 1.491 2.927 2.442 4.932 2.442 0.085 0 0.169-0.002 0.253-0.005h-0.012c-0.072 0.003-0.156 0.005-0.241 0.005-2.005 0-3.787-0.951-4.921-2.427l-0.011-0.015c2.465 0.844 5.403 1.556 8.427 2.007l0.283 0.035-0.189-0.176-0.010-0.009h0.001c9.246 0.721 20.022 1.132 30.894 1.132 8.895 0 17.725-0.275 26.484-0.817l-1.2 0.059c23.938-2.903 47.87-6.191 67.819-21.714-60.361 10.038-114.189-7.976-163.432-40.754-62.526-42.692-113.562-97.57-150.624-161.552l-1.266-2.368c-37.209-63.35-37.541-128.082-6.708-194.243 24.091-51.695 60.779-93.223 102.717-130.484 37.357-34.627 82.026-61.96 131.374-79.385l2.658-0.818c-1.94-3.896-5.547-2.334-8.531-2.488-1.363-0.038-2.966-0.060-4.575-0.060-36.094 0-69.637 10.924-97.503 29.647l0.628-0.397c-31.474 20.117-58.79 40.857-84.326 63.555l0.669-0.584zM492.599 42.999c-39.463 11.377-73.089 33.905-106.502 56.561-15.802 10.715-30.347 23.283-45.461 35.011 5.791 1.372 9.388-2.686 13.549-5.426 17.818-12.15 38.517-24.344 60.004-35.206l3.231-1.481c35.004-17.038 71.343-26.488 110.44-18.839 52.66 10.302 93.005 42.145 131.935 76.319h-0.004l-0.081 0.268c0.051-0.002 0.11-0.003 0.17-0.003 2.318 0 4.279 1.524 4.937 3.625l0.010 0.037-0.104 0.004q1.522 1.393 3.046 2.788l-0.435-0.265 4.158 3.168c45.709 37.899 90.856 76.776 126.699 124.27 40.658 53.875 61.152 114.746 50.786 183.444-1.717 17.766-5.657 34.098-11.571 49.45l0.432-1.275c-20.428 61.354-60.138 110.179-102.402 157.347-1.212 1.353-6.417 1.93-1.88 5.462 12.172-4.662 18.893-15.705 27.802-24.105 15.61-14.656 29.713-30.531 42.294-47.597l0.673-0.956c1.025-0.253 1.92-0.707 2.681-1.321l-0.013 0.010c-0.747 0.604-1.642 1.058-2.62 1.301l-0.047 0.010c0.915-2.219 1.492-4.687 4.127-5.631 0.049-1.692 0.529-3.004 2.573-2.937-0.114-1.874-0.217-3.739 2.682-2.975l-0.468-0.207c11.687-25.574 23.524-57.229 33.34-89.761l1.465-5.652c6.899-21.363 10.876-45.942 10.876-71.45 0-48.306-14.264-93.281-38.81-130.942l0.566 0.925c-39.434-63.695-92.974-115.24-145.453-167.633-12.046-12.026-25.226-22.914-37.854-34.36-41.104-37.256-88.115-58.039-144.769-51.978zM190.011 206.315c1.909-1.45 3.129-3.721 3.129-6.277 0-0.835-0.13-1.64-0.371-2.395l0.015 0.056 0.292 0.407h0.003c-1.070-3.156 0.917-4.338 3.337-5.24-0.009-0.079-0.014-0.172-0.014-0.265 0-1.431 1.16-2.591 2.591-2.591 0.063 0 0.125 0.002 0.187 0.007h-0.008l2.829-4.010c54.112-61.542 117.586-113.223 188.513-153.244l3.604-1.87c-7.791-2.63-11.777 1.428-16.18 3.379-77.712 34.428-141.622 87.174-198.48 149.388-34.554 37.809-68.676 76.004-94.802 120.316-26.468 44.891-45.399 92.509-47.59 145.501-0.031 1.478-0.049 3.221-0.049 4.968 0 37.586 8.258 73.244 23.059 105.257l-0.645-1.555c26.649 63.355 70.774 113.861 118.498 161.717 22.429 22.492 45.193 44.652 67.805 66.962 167.395 117.072 231.994 114.533 231.994 114.533 53.139-2.623 99.659-24.307 144.651-50.319 98.589-56.035 179.332-132.892 238.271-225.039l1.617-2.704c19.082-30.46 33.928-65.868 42.561-103.644l0.444-2.311q-15.566 29.332-31.132 58.663c-14.804 37.821-38.238 70.392-63.101 101.9-63.922 80.463-144.846 144.621-237.585 187.598l-4.026 1.674c-24.032 11.757-52.108 19.293-81.766 20.865l-0.54 0.023q-6.36 0.265-12.805 0.112c-62.736 0.549-198.949-98.835-198.949-98.835-9.439-8.333-17.269-15.019-24.85-21.976-58.624-53.793-114.381-109.989-152.014-181.393-19.706-34.366-32.872-74.885-36.712-118.087l-0.081-1.125c-0.121-2.855-0.19-6.204-0.19-9.569 0-29.188 5.179-57.167 14.669-83.067l-0.537 1.676c19.846-60.33 55.967-110.652 97.108-157.824 6.209-7.12 10.75-16.099 20.020-20.273 0.227 0.7 0.357 1.506 0.357 2.342 0 2.554-1.219 4.824-3.107 6.259l-0.019 0.014zM502.105 887.93c0.123-0.001 0.114-0.001 0 0zM497.686 887.969l0.828-0.007zM499.291 887.955l1.328-0.012zM498.514 887.962h0.048zM498.563 887.962l0.729-0.007zM500.619 887.943l1.222-0.011zM502.022 887.931l0.083-0.001zM501.841 887.933l0.181-0.002zM496.265 887.981l0.252-0.002zM496.516 887.979l1.17-0.010zM490.684 888.030l0.219-0.002zM488.349 888.051l1.278-0.011zM489.627 888.040l1.057-0.009zM487.414 888.059l0.935-0.008zM490.903 888.029l2.307-0.020zM493.21 888.008l3.055-0.027z" />
<glyph unicode="&#xe924;" glyph-name="Redsys" d="M1014.864 538.052c-8.664 42.256-21.118 79.557-37.407 114.72l1.329-3.196c-14.025 31.291-29.46 58.094-47.222 83.131l1.008-1.497c-27.226 38.721-58.014 72.252-92.617 101.397l-0.794 0.651c-49.82 41.426-108.746 73.916-173.146 93.998l-3.618 0.972c-44.895 14.364-96.539 22.643-150.116 22.643-49.741 0-97.815-7.136-143.254-20.44l3.598 0.903c-30.576-8.802-56.542-18.754-81.43-30.602l3.183 1.364c-1.918-0.883-5.831-0.612-4.284-4.563 1.201-3.071 3.655-1.78 6.2-1.481 9.666 1.241 20.847 1.95 32.195 1.95 8.734 0 17.37-0.42 25.889-1.24l-1.084 0.084c41.474-3.5 78.729-19.182 108.811-43.41l-0.385 0.3c48.39-39.162 81.86-95.015 81.926-163.056 0.081-2.246 0.127-4.884 0.127-7.533 0-15.868-1.654-31.35-4.798-46.282l0.257 1.457c-11.897-53.411-42.801-98.145-85.088-127.719l-0.679-0.45c-33.615-24.731-75.833-39.578-121.519-39.578-8.205 0-16.299 0.479-24.254 1.41l0.966-0.092c-55.090 4.317-103.424 30.134-137.172 68.966l-0.21 0.247c-52.846 60.509-66.595 129.753-45.436 206.769 3.096 11.265 9.942 21.281 11.336 33.385-4.685-0.213-8.738-2.737-11.067-6.452l-0.034-0.058c-8.126-9.885-16.108-19.9-23.842-30.094-36-47.3-64.238-102.777-81.511-162.894l-0.868-3.532c-5.282-18.029-10.105-40.346-13.468-63.137l-0.348-2.868c-3.793-22.425-5.96-48.258-5.96-74.597 0-8.423 0.222-16.795 0.66-25.11l-0.049 1.162c1.684-28.515 5.287-55.006 10.735-80.818l-0.622 3.52c7.648-36.964 17.836-69.302 30.85-100.156l-1.309 3.497c33.732-77.931 83.199-143.397 144.787-194.838l0.824-0.669c22.781-18.745 48.189-36.263 75.033-51.551l2.669-1.4c35.077-20.249 75.648-37.028 118.473-48.236l3.459-0.769c27.864-7.142 60.511-12.245 93.994-14.246l1.465-0.070c9.854-0.678 21.357-1.064 32.951-1.064 56.297 0 110.467 9.109 161.116 25.934l-3.606-1.038c60.566 20 113.053 48.842 159.003 85.527l-1.015-0.783c55.324 44.281 100.865 98.202 134.622 159.523l1.383 2.741c11.953 21.861 23.065 47.51 31.863 74.21l0.953 3.34c11.029 30.047 19.192 65.016 22.975 101.288l0.161 1.909c1.945 17.159 3.055 37.048 3.055 57.196 0 35.84-3.511 70.859-10.207 104.734l0.562-3.41z" />
<glyph unicode="&#xe925;" glyph-name="baokim" d="M556.8 113.257l432.8-186.4-346.4 914.4c-6.4 14.4-12 23.2-19.2 36-20.8 31.2-40 54.4-72.8 66.4 0 0-0.8 0.8-0.8 0.8-12.8 4-27.2 6.4-41.6 6.4-59.2 0-100.8-43.2-122.4-95.2-2.4-4.8-4.8-9.6-6.4-14.4v0l-346.4-913.6 4.8 0.8 427.2 184.8v13.6l0.8 142.4-176-63.2 141.6 395.2c0.8 0 27.2 74.4 40.8 114.4 0 0 0 0 0 0s4.8 13.6 11.2 31.2l2.4 6.4c11.2 32.8 26.4 74.4 28 74.4s44.8-122.4 44.8-122.4c14.4-40 32-89.6 32-89.6l146.4-411.2-180 64.8v-156z" />
<glyph unicode="&#xe926;" glyph-name="mpesa" d="M304 362.057c58.4-7.2 112-11.2 160.8-11.2 401.6 0 516.8 222.4 516.8 222.4l-332.8 160c-72-168-207.2-257.6-207.2-257.6-51.2 10.4-102.4 91.2-102.4 91.2-12-18.4-24.8-34.4-36.8-48.8v349.6h412.8v-121.6l68.8-32v137.6c-0.8 54.4-44.8 99.2-100 99.2h-343.2c-55.2 0-99.2-44.8-99.2-99.2v-387.2c-60.8-41.6-120-49.6-157.6-49.6-25.6 0-41.6 4-41.6 4 21.6-11.2 129.6-32 200-44.8v-347.2c0-55.2 44.8-99.2 99.2-99.2h342.4c55.2 0 99.2 44.8 99.2 99.2v341.6c0 0-39.2-16-68.8-24v-192.8h-412.8v211.2c1.6 0 2.4-0.8 2.4-0.8zM616.8 76.457h40c2.4 0 4-1.6 4-4v-40c0-2.4-1.6-4-4-4h-40c-2.4 0-4 1.6-4 4v40c0 2.4 2.4 4 4 4zM471.2 97.257h80.8c2.4 0 4-1.6 4-4v-80.8c0-2.4-1.6-4-4-4h-80.8c-2.4 0-4 1.6-4 4v80.8c0 1.6 1.6 4 4 4zM366.4 76.457h40c2.4 0 4-1.6 4-4v-40c0-2.4-1.6-4-4-4h-40c-2.4 0-4 1.6-4 4v40c0 2.4 1.6 4 4 4z" />
<glyph unicode="&#xe927;" glyph-name="Paytrail" d="M0 950.857h1024v-1024h-1024zM512 581.897c-15.68 1.92-32 2.88-47.68 6.080-94.597 20.35-167.353 94.934-184.735 188.938l-0.225 1.462c-0.204 0.598-0.322 1.287-0.322 2.004 0 2.731 1.71 5.062 4.118 5.981l0.044 0.015c13.024 7.199 21.697 20.851 21.697 36.53 0 3.042-0.327 6.008-0.947 8.865l0.050-0.274c-4.616 19.458-21.844 33.71-42.4 33.71s-37.784-14.252-42.341-33.414l-0.059-0.296c-0.466-2.347-0.733-5.045-0.733-7.806 0-17.537 10.768-32.558 26.053-38.813l0.28-0.101c2.678-1.006 4.591-3.456 4.799-6.376l0.001-0.024c1.92-9.6 3.52-19.52 6.080-28.8 31.161-109.497 127.552-189.409 243.501-195.492l0.659-0.028c4.209-0.244 9.132-0.384 14.088-0.384 44.121 0 85.665 11.038 122.019 30.502l-1.388-0.679c73.705 37.929 126.49 107.597 140.581 190.445l0.219 1.555c0.327 3.422 2.607 6.238 5.7 7.341l0.060 0.019c16.256 6.342 27.564 21.876 27.564 40.051 0 2.697-0.249 5.335-0.725 7.893l0.041-0.265c-3.547 20.589-21.27 36.056-42.605 36.056-18.896 0-34.959-12.132-40.823-29.032l-0.092-0.303c-1.628-4.315-2.57-9.302-2.57-14.51 0-14.765 7.575-27.76 19.051-35.311l0.159-0.098c2.978-1.585 4.972-4.669 4.972-8.219 0-1.067-0.18-2.092-0.511-3.046l0.020 0.065c-21.967-110.837-118.020-193.377-233.507-194.239l-0.093-0.001zM128 37.897h40.96c4.16 0 5.44 0 5.12 5.12v51.2c0 3.84 0 5.12 5.12 5.12h25.92c0.271-0.005 0.591-0.008 0.912-0.008 27.747 0 50.24 22.493 50.24 50.24 0 5.61-0.919 11.005-2.616 16.042l0.103-0.354c-5.454 20.769-24.060 35.84-46.187 35.84-0.075 0-0.15 0-0.225-0.001h0.012c-25.28 0-50.56 0-76.16 0h-4.16v-24.32c4.8 0 8.96 0 13.44 0s6.080 0 6.080-6.080c0-33.92 0-68.16 0-102.4 0.068-0.814 0.106-1.763 0.106-2.72s-0.039-1.906-0.114-2.843l0.008 0.123c-2.249 0.153-4.874 0.24-7.52 0.24s-5.271-0.087-7.874-0.258l0.354 0.019s-3.84-1.6-3.84-2.88c0.32-5.12 0.32-13.12 0.32-20.8zM277.12 129.097l18.24 5.76c3.237 1.208 6.977 1.906 10.88 1.906s7.643-0.699 11.102-1.978l-0.222 0.072c3.111-1.195 5.525-3.609 6.693-6.641l0.027-0.079c0.23-2.493 0.361-5.391 0.361-8.32s-0.131-5.827-0.388-8.689l0.027 0.369c-4.592 1.11-10.36 2.122-16.226 2.81l-0.734 0.070c-2.497 0.306-5.388 0.48-8.32 0.48s-5.823-0.174-8.663-0.514l0.343 0.033c-20.192-2.215-35.761-19.177-35.761-39.775 0-1.545 0.088-3.069 0.258-4.569l-0.017 0.183c3.085-18.742 19.168-32.865 38.549-32.865 2.894 0 5.715 0.315 8.43 0.913l-0.259-0.048c9.151 2.143 16.741 4.451 24.131 7.175l-1.411-0.455v-6.080h27.84c14.72 0 14.72 0 14.72 14.080s0 11.52-11.2 11.2c-4.8 0-6.4 0-6.4 6.080q0 26.88 0 53.76c0.078 0.839 0.123 1.814 0.123 2.799 0 15.566-11.115 28.537-25.841 31.408l-0.202 0.033c-5.441 1.331-11.688 2.095-18.113 2.095-13.759 0-26.701-3.502-37.982-9.662l0.415 0.207zM741.44 38.857h29.12c14.4 0 14.4 0 14.4 14.72s0 10.56-10.24 10.56-7.040 0-7.040 7.040c0 19.52 0 39.040 0 58.24-0.189 11.814-7.624 21.844-18.047 25.855l-0.193 0.065c-7.119 3.44-15.482 5.45-24.314 5.45-4.773 0-9.408-0.587-13.839-1.693l0.392 0.083c-8.64-2.24-16.96-5.44-25.92-8.32l8.32-20.48 18.56 5.76c3.191 1.171 6.877 1.849 10.72 1.849s7.529-0.678 10.943-1.92l-0.223 0.071c3.211-1.329 5.711-3.829 7.009-6.955l0.031-0.085c0.234-2.541 0.367-5.495 0.367-8.48s-0.133-5.939-0.394-8.857l0.027 0.377c-7.163 2.437-15.414 3.844-23.994 3.844-3.5 0-6.945-0.234-10.321-0.688l0.394 0.043c-20.119-2.289-35.606-19.215-35.606-39.758 0-2.005 0.147-3.975 0.432-5.9l-0.026 0.218c3.085-18.742 19.168-32.865 38.549-32.865 2.894 0 5.715 0.315 8.43 0.913l-0.259-0.048c9.151 2.143 16.741 4.451 24.131 7.175l-1.411-0.455zM430.080 83.977l-1.92 2.88c-8.96 21.76-17.6 43.52-26.24 64 0 3.52-2.88 4.8-6.4 4.48h-22.4c-10.56 0-10.56 0-10.56-10.56s0-14.72 14.72-14.72c0.271 0.039 0.584 0.061 0.902 0.061 3.049 0 5.624-2.031 6.446-4.813l0.012-0.048c9.92-24.96 20.16-49.92 32-74.88 0.377-1.197 0.594-2.573 0.594-4s-0.217-2.803-0.62-4.098l0.026 0.098c-5.12-15.68-10.88-32-16.32-46.4-0.677-1.649-1.336-3.677-1.853-5.761l-0.067-0.319h17.6c0.227-0.027 0.489-0.043 0.755-0.043 3.274 0 6.001 2.341 6.598 5.44l0.007 0.042c15.36 40.96 32 81.92 46.72 123.2 4.48 11.84 4.48 11.84 17.28 11.84h2.56s2.56 1.92 2.88 2.88v22.4h-55.040s-2.24-1.92-2.56-3.2 0-8.96 0-13.44 0-8.32 8-8.32h4.8zM626.88 156.937v0h-43.2s-2.88-2.24-2.88-3.52 0-11.52 0-17.28 0-4.16 4.48-4.16h10.24c3.84 0 5.44 0 5.12-5.12v-83.52c0-3.2 0-5.44 4.48-5.12h39.040c3.2 0 4.48 0 4.48 4.48-0.153 2.344-0.24 5.082-0.24 7.84s0.087 5.496 0.259 8.211l-0.019-0.371c0 3.84 0 5.44-5.12 5.12h-16.32v38.4c-0.097 0.864-0.153 1.866-0.153 2.88 0 15.022 12.178 27.2 27.2 27.2 0.054 0 0.108 0 0.161 0h20.792c0 7.040 0 13.76 0 20.16 0 0-2.24 3.2-3.2 3.2-2.547 0.38-5.488 0.597-8.478 0.597-12.73 0-24.541-3.933-34.285-10.65l0.203 0.132h-2.24zM879.68 64.137v132.8c0 4.8 0 6.4-6.4 6.080h-27.52c-11.84 0-11.84 0-11.84-11.84s0-13.12 13.12-13.12c4.48 0 5.76 0 5.76-6.080v-132.16c13.76 0 27.52 0 40.96 0 0 0 2.88 2.24 2.88 3.52s0 11.2 0 16.96-1.6 4.8-4.8 4.48zM550.4 61.897c-0.048 0.527-0.075 1.14-0.075 1.76s0.027 1.233 0.080 1.839l-0.006-0.079c0 21.12 0 42.56 0 64 0 0 2.24 3.2 3.84 3.52s8.96 0 13.76 0 4.16 0 4.16 4.16 0 11.52 0 17.6c-0.395 1.69-1.781 2.968-3.499 3.198l-0.021 0.002c-1.968 0.231-4.249 0.363-6.56 0.363s-4.592-0.132-6.834-0.388l0.274 0.025c-3.84 0-5.12 1.6-5.12 5.12s0 11.84 0 17.92h-24c-1.077-0.891-1.867-2.096-2.23-3.473l-0.010-0.047c-0.153-2.249-0.24-4.874-0.24-7.52s0.087-5.271 0.258-7.874l-0.019 0.354c0-3.2 0-4.48-4.48-4.48s-8.96 0-14.080 0c0-7.36 0-14.080 0-20.8s0-4.8 4.8-4.48 8.64 0 13.76 0v-6.080c0-21.44 0-42.56 0-64-0.121-0.873-0.189-1.882-0.189-2.907 0-11.988 9.416-21.776 21.256-22.371l0.053-0.002c0.381-0.005 0.832-0.008 1.283-0.008 8.278 0 16.338 0.936 24.079 2.707l-0.722-0.139c1.175 0.144 2.096 1.065 2.239 2.228l0.001 0.012c0 7.68 0 15.040 0 23.040zM823.36 157.897h-31.040c-13.76 0-13.76 0-13.76-13.44s0-12.16 11.84-11.84c5.44 0 6.72 0 6.72-6.4 0-24.96 0-50.24 0-75.2 0-3.84 0-7.68 0-11.84h43.2v24.96h-17.28zM791.36 189.897c0-9.013 7.307-16.32 16.32-16.32v0c7.025 2.054 12.069 8.438 12.069 16s-5.044 13.946-11.952 15.97l-0.118 0.030c-0.099 0.002-0.216 0.003-0.333 0.003-9.013 0-16.32-7.307-16.32-16.32 0-0.226 0.005-0.451 0.014-0.676l-0.001 0.032zM174.080 125.897c0 16.64 0 32 0 48.96 0.338 1.434 1.446 2.542 2.854 2.875l0.026 0.005c4.785 0.332 10.37 0.521 16 0.521s11.215-0.189 16.75-0.561l-0.75 0.040c16-2.24 21.44-12.8 19.52-32 0-11.84-7.68-18.24-21.12-19.84-4.975-0.328-10.786-0.514-16.64-0.514s-11.665 0.187-17.426 0.554l0.786-0.040zM301.76 92.297c5.047-0.827 9.364-1.829 13.574-3.077l-0.774 0.197c9.28-2.88 9.6-3.52 8.64-13.12 0.209-0.572 0.329-1.232 0.329-1.92s-0.121-1.348-0.342-1.96l0.013 0.040c-6.697-6.417-15.611-10.567-25.482-11.194l-0.118-0.006c-0.469-0.055-1.012-0.087-1.562-0.087-6.323 0-11.673 4.168-13.451 9.907l-0.027 0.1c-0.306 1.132-0.481 2.433-0.481 3.774 0 6.167 3.712 11.468 9.024 13.789l0.097 0.038c2.828 1.2 6.343 2.403 9.95 3.379l0.61 0.141zM719.36 92.297c5.186-0.832 9.614-1.835 13.938-3.082l-0.818 0.202c8.96-2.88 9.28-3.52 8.64-13.12-0.039-1.495-0.642-2.841-1.602-3.842l0.002 0.002c-6.852-6.549-16.017-10.728-26.15-11.197l-0.090-0.003c-0.423-0.047-0.913-0.074-1.409-0.074-6.197 0-11.415 4.195-12.969 9.9l-0.022 0.094c-0.388 1.257-0.611 2.701-0.611 4.198 0 5.665 3.2 10.582 7.891 13.043l0.081 0.039c3.552 1.368 7.939 2.689 12.44 3.71l0.68 0.13z" />
<glyph unicode="&#xe928;" glyph-name="domain" d="M512 950.857c-282.77 0-512-229.23-512-512s229.23-512 512-512c282.77 0 512 229.23 512 512v0c0 282.77-229.23 512-512 512v0zM866.24 643.657h-151.040c-17.782 69.345-41.991 130.035-72.816 186.601l2.096-4.201c94.946-33.253 171.986-97.544 220.713-180.473l1.047-1.927zM512 846.537c40.875-58.22 74.23-125.572 96.559-197.768l1.361-5.112h-195.84c23.69 77.308 57.045 144.66 99.46 205.199l-1.54-2.319zM115.84 336.457c-8.535 30.715-13.441 65.985-13.441 102.4s4.905 71.685 14.092 105.185l-0.651-2.785h172.16c-3.875-30.542-6.194-66.087-6.399-102.132l-0.001-0.268c0.206-36.313 2.525-71.858 6.842-106.783l-0.442 4.383zM157.76 234.057h151.040c17.782-69.345 41.991-130.035 72.816-186.601l-2.096 4.201c-95.057 33.041-172.162 97.393-220.717 180.469l-1.043 1.931zM308.8 643.657h-151.040c49.598 85.006 126.703 149.359 218.9 181.531l2.86 0.869c-28.729-52.365-52.938-113.055-69.493-176.83l-1.227-5.57zM512 31.177c-40.875 58.22-74.23 125.572-96.559 197.768l-1.361 5.112h195.84c-23.69-77.308-57.045-144.66-99.46-205.199l1.54 2.319zM631.68 336.457h-239.36c-4.929 30.513-7.941 65.945-8.317 102.009l-0.003 0.391c0.351 36.43 3.363 71.863 8.852 106.471l-0.532-4.071h239.36c4.957-30.537 7.969-65.97 8.317-102.041l0.003-0.359c-0.38-36.456-3.391-71.888-8.854-106.505l0.534 4.105zM644.48 51.657c28.729 52.365 52.938 113.055 69.493 176.83l1.227 5.57h151.040c-49.774-84.856-126.814-149.147-218.886-181.52l-2.874-0.88zM736 336.457c3.875 30.542 6.194 66.087 6.399 102.132l0.001 0.268c-0.206 36.313-2.525 71.858-6.842 106.783l0.442-4.383h172.8c8.535-30.715 13.441-65.985 13.441-102.4s-4.905-71.685-14.092-105.185l0.651 2.785z" />
<glyph unicode="&#xe929;" glyph-name="mix-layout" d="M1023.86-66.023h-453.858v453.922h453.906v-453.922zM645.776 9.725h302.6v302.616h-302.6zM453.864-66.023h-453.862v453.922h453.908v-453.922zM75.774 9.725h302.6v302.616h-302.6zM0.148 505.023h-0.070v438.834h1023.924v-438.834zM73.268 578.183h877.6v292.554h-877.6z" />
<glyph unicode="&#xe92a;" glyph-name="block-layout" d="M1023.92-73.139h-807.597v357.957l-216.325 0.064v665.975h807.665l-0.528-402.050h216.859v-621.946zM289.875 4.707h660.731v466.456h-660.731zM73.546 368.235l142.785-0.054v180.625h517.436l0.51 318.907h-660.729z" />
<glyph unicode="&#xe92b;" glyph-name="alignment-layout-horizontal" d="M365.714 877.714v-877.714h-219.429v877.714h219.429zM73.143 950.857v-1024h365.714v1024h-365.714zM877.714 877.714v-877.714h-219.429v877.714h219.429zM585.143 950.857v-1024h365.714v1024h-365.714z" />
<glyph unicode="&#xe92c;" glyph-name="alignment-layout-vertical" d="M950.857 804.571v-219.429h-877.714v219.429h877.714zM0 877.714v-365.714h1024v365.714h-1024zM950.857 292.571v-219.429h-877.714v219.429h877.714zM0 365.714v-365.714h1024v365.714h-1024z" />
<glyph unicode="&#xe92d;" glyph-name="gallery1" horiz-adv-x="1270" d="M901.118-73.14v286.719h368.639v-286.719zM450.559-73.14v286.719h368.639v-286.719zM0-73.14v286.719h368.639v-286.719zM901.118 295.499v286.719h368.639v-286.719zM450.559 295.499v286.719h368.639v-286.719zM0 295.499v286.719h368.639v-286.719zM901.118 664.138v286.719h368.639v-286.719zM450.559 664.138v286.719h368.639v-286.719zM0 664.138v286.719h368.639v-286.719z" />
<glyph unicode="&#xe92e;" glyph-name="gallery2" horiz-adv-x="1270" d="M901.118-73.14v245.759h368.639v-245.759zM450.559-73.14v409.599h368.639v-409.599zM0-73.14v655.358h368.639v-655.358zM901.118 254.539v245.759h368.639v-245.759zM450.559 418.378v532.479h368.639v-532.479zM901.118 582.218v368.639h368.639v-368.639zM0 664.138v286.719h368.639v-286.719z" />
<glyph unicode="&#xe92f;" glyph-name="gallery3" horiz-adv-x="2003" d="M407.468-73.143v1024h1186.159v-1024zM204.346 52.42v775.518h122.919v-775.518zM1675.324 52.729v775.521h122.919v-775.521zM0 439.226l123.261 141.142v-282.283zM1879.982 615.653l123.259-141.139-123.259-141.152z" />
<glyph unicode="&#xe930;" glyph-name="gallery4" horiz-adv-x="1560" d="M1231.88-73.143v246.376h328.501v-246.376zM821.253-73.143v246.376h328.501v-246.376zM410.627-73.143v246.376h328.501v-246.376zM0-73.143v246.376h331.068v-246.376zM246.376 255.358v695.499h1067.629v-695.499z" />
<glyph unicode="&#xe931;" glyph-name="klarna1" d="M688.278 886.742c-0.304-31.57-2.15-63.041-6.438-94.329-9.203-67.14-27.635-131.635-55.978-193.243-33.53-72.886-78.49-137.869-135.101-194.72-3.494-3.514-2.538-5.379-0.195-8.57 88.166-120.096 176.266-240.237 264.371-360.378 1.072-1.466 2.109-2.957 3.261-4.57-1.693-1.424-3.405-0.832-4.915-0.835-77.485-0.038-154.966-0.006-232.451-0.106-3.658-0.006-5.939 0.954-8.192 4.032-96.074 131.216-192.227 262.371-288.517 393.427-3.143 4.282-3.035 6.067 1.321 9.376 34.846 26.486 71.433 50.778 104.089 80.038 84.739 75.939 137.773 169.852 158.154 281.957 5.28 29.053 8.227 58.335 7.357 87.916 64.413 0.002 128.826 0.002 193.235 0.002zM197.275 879.908v6.832l-197.275 0.117 0.117-856.781h197.323c-0.164 280.842-0.142 568.966-0.164 849.831zM1023.999 129.487c0-62.265-50.476-112.741-112.741-112.741s-112.741 50.476-112.741 112.741c0 62.265 50.476 112.741 112.741 112.741s112.741-50.476 112.741-112.741z" />
<glyph unicode="&#xe932;" glyph-name="getbutton1" d="M399.498 885.647c-245.312-16.535-426.363-201.678-396.214-405.167 6.144-41.469 15.76-68.461 27.411-76.931 16.818-12.224 28.179-10.688 87.245 11.773 21.236 8.074 29.972 28.243 22.891 52.858-33.48 116.378 37.169 221.502 179.925 267.712 86.81 28.1 176.381 23.863 261.459-12.369 213.523-90.934 204.362-324.255-15.917-405.292-91.149-33.53-178.509-32.557-270.951 3.011-33.084 12.733-54.161 7.635-65.571-15.853-5.302-10.912-81.834-317.667-81.055-324.89 1.323-12.31 16.040-17.635 25.734-9.306 1.708 1.469 37.322 45.379 79.135 97.581 41.813 52.198 77.376 96.154 79.028 97.674 3.693 3.408 5.965 3.437 27.36 0.33 242.048-35.114 472.080 104.915 505.13 307.491 37.546 230.126-188.73 430.043-465.61 411.379zM966.147 455.18c-0.902-1.459-2.547-7.427-3.651-13.264-39.533-209.226-252.976-370.39-504.813-381.178-32.224-1.379-32.96-5.843-3.389-20.579 118.285-58.934 266.33-59.002 388.214-0.17 8.618 4.16 16.813 7.562 18.221 7.562 2.829 0 9.213-3.565 87.523-48.835 58.582-33.869 59.085-34.086 67.859-29.546 12.026 6.218 11.485 8.285-22.954 87.616-34.982 80.586-33.203 73.296-21.786 89.293 48.698 68.237 64.090 145.872 44.128 222.582-9.142 35.139-36.768 89.171-45.584 89.171-1.171 0-2.864-1.197-3.77-2.653z" />
<glyph unicode="&#xe933;" glyph-name="paymentez" d="M782.544 175.1v-248.243l-558.544 372.365 217.213 93.091 341.331-217.213zM782.544 454.371v-248.24l-558.544 372.362 217.213 93.092 341.331-217.213zM782.544 733.645v-248.244l-558.544 372.365 217.213 93.091 341.331-217.212z" />
<glyph unicode="&#xe934;" glyph-name="mellat" d="M498.71 525.42c80.835 0 146.384-65.552 146.384-146.384 0-80.835-65.549-146.384-146.384-146.384-80.832 0-146.381 65.549-146.381 146.384 0 80.832 65.549 146.384 146.381 146.384zM477.626 770.52l0.006-202.182 0.003-1.869-1.853-0.25-0.144-0.022h-0.022l-2.016-0.256-2.042-0.288-0.25-0.032-1.994-0.304-1.949-0.307-0.525-0.090v-0.013l-2.035-0.352v0.010l-1.978-0.368-0.109-0.026h-0.010l-2.061-0.41-2.029-0.422v0.010l-0.336-0.077-1.978-0.442-1.994-0.47-0.15-0.029h-0.013c-9.024-2.176-17.818-5.005-26.314-8.438-1.731-0.704-3.376-1.398-4.931-2.077-1.622-0.71-3.251-1.45-4.845-2.202l-0.048-0.022-0.010-0.006-1.818-0.874-1.83-0.912-0.266-0.122-1.626-0.829-2.358-1.235-1.584-0.854-1.558-0.858-0.538-0.291c-0.678-0.381-1.446-0.819-2.259-1.293l-0.451-0.259-0.445-0.266-0.016-0.003-2.109-1.248-1.635-1.005-0.23-0.138-1.667-1.040-1.661-1.075-0.202-0.134h-0.010c-4.982-3.242-9.818-6.73-14.483-10.438-1.014-0.806-1.91-1.533-2.701-2.182-0.797-0.65-1.699-1.418-2.653-2.23l-0.032-0.022-0.166-0.138-1.485-1.293-1.459-1.293-0.214-0.192-1.318-1.203-0.010 0.003-1.293-1.2-0.656-0.614-1.261-1.197-1.718-1.667-1.213-1.2-1.213-1.226-0.726-0.742-1.053-1.094-1.030-1.094-1.014-1.094-0.915-0.995-0.925-1.011-1.178-1.334-0.87-0.989-0.842-0.97-0.899-1.059-0.976-1.162-0.96-1.146 0.010-0.006-0.71-0.877-1.002-1.242-0.966-1.216-0.566-0.742c-2.246-2.899-4.426-5.891-6.525-8.97l-1.226-1.814-1.197-1.798v-0.022l-0.016-0.022-0.336-0.506-0.726-1.126-0.714-1.139-0.982-1.587-1.056-1.75-0.179-0.294v-0.010l-0.016-0.022-0.957-1.629c-0.493-0.842-0.81-1.398-1.12-1.949l-0.083-0.16-0.96-1.712-0.579-1.056-0.576-1.082-0.934-1.773-1.030-2.006-0.966-1.958-1.018-2.096-0.867-1.846-0.938-2.064-0.666-1.53-0.17-0.394-0.973-2.259-0.778-1.907-0.813-2.013c-0.4-1.018-0.64-1.658-0.867-2.262v-0.010l-0.106-0.285-0.013-0.032-0.598-1.597c-0.451-1.245-0.835-2.326-1.21-3.411l-0.257-0.762-0.636-1.901-0.628-1.968-0.602-1.974 0.012-0.003-0.419-1.395-0.009 0.003-0.4-1.37-0.403-1.456-0.184-0.669 0.010-0.003-0.566-2.096-0.48-1.901-0.637-2.586-0.403-1.786c-0.154-0.694-0.311-1.392-0.545-2.528l-0.412-2.019-0.473-2.502-0.348-1.965-0.412-2.477-0.314-2.086-0.359-2.502-0.261-2.029-0.28-2.464-0.231-2.173-0.225-2.486-0.166-2.112-0.132-2.026-0.018-0.339v-0.010l-0.022-0.266-0.020-0.339-0.096-1.626-0.105-2.65-0.015-0.451-0.052-1.571-0.049-2.336-0.016-2.333 0.016-2.422 0.049-2.438v-0.022l0.012-0.045h-0.009l0.077-2.358 0.104-2.422 0.003-0.032 0.012-0.077v-0.013l0.124-2.282 0.171-2.41 0.197-2.41 0.212-2.272 0.003-0.010 0.010-0.086c0.317-3.11 0.719-6.253 1.205-9.418l-0.003-0.010 0.36-2.278 0.403-2.291 0.006-0.042 0.012-0.077v-0.010l0.012-0.067 0.406-2.224 0.456-2.272v-0.022l0.010-0.032c0.449-2.17 0.929-4.336 1.445-6.474l0.314-1.261 0.329-1.274v-0.022l0.015-0.064 0.6-2.259 0.615-2.221 0.004-0.035h0.012c0.295-1.053 0.606-2.096 0.917-3.133l0.178-0.602 0.191-0.618 0.015-0.042 0.016-0.054 0.698-2.208 0.708-2.141 0.025-0.051 0.744-2.154 0.755-2.109 0.013-0.019 0.026-0.077v-0.010l0.762-2.048 0.8-2.051 0.122-0.298 0.8-1.997 0.842-2.022 0.042-0.109v-0.022l0.787-1.757-133.768-77.229v504.404c0 29.956 16.157 56.142 40.227 70.328l249.41 143.999c6.403 3.762 11.805 5.567 17.328 5.487h0.013c5.51-0.087 10.989-2.052 17.597-5.834l251.104-144.956c22.89-14.449 38.099-39.962 38.099-69.024v-127.566l-308.886 178.555c-2.547 1.415-5.245 2.146-7.786 2.146-1.949 0-3.802-0.431-5.392-1.304-1.584-0.87-2.954-2.198-3.952-3.985-1.178-2.1-1.872-4.881-1.872-8.366l-0.010 0.001zM847.888 202.060l-176.72 102.026 0.714 1.728 0.054 0.134 0.010 0.013 0.784 1.875 0.771 1.904 0.006 0.006 0.086 0.234 0.736 1.875 0.707 1.846 0.186 0.496 0.707 1.939 0.675 1.898 0.032 0.109 0.678 1.994 0.653 1.968 0.112 0.326 0.608 1.936h-0.010l0.595 1.965 0.045 0.147 0.003 0.010c2.63 8.896 4.573 17.933 5.846 27.008 0.262 1.85 0.48 3.619 0.669 5.302 0.198 1.766 0.368 3.542 0.515 5.299l0.006 0.054 0.003 0.013 0.15 2.010 0.128 2.042 0.026 0.291 0.096 1.821 0.074 1.846 0.038 0.813 0.051 1.802 0.032 1.776 0.016 0.611c0.006 0.781 0.010 1.661 0.006 2.605v0.518l-0.003 0.518 0.003 0.010-0.006 0.563-0.016 1.888-0.048 1.917-0.010 0.269-0.067 1.962-0.093 1.981-0.013 0.243c-0.317 5.939-0.912 11.869-1.789 17.766-0.192 1.283-0.371 2.422-0.538 3.43-0.17 1.014-0.378 2.179-0.611 3.414l-0.003 0.038-0.042 0.214-0.378 1.93-0.39 1.91-0.054 0.288-0.381 1.738 0.010 0.006-0.397 1.718-0.205 0.88-0.403 1.69-0.429 1.686-0.157 0.63-0.435 1.651-0.454 1.664-0.282 1.002-0.419 1.459-0.429 1.437-0.438 1.427-0.406 1.293-0.413 1.306-0.563 1.69-0.432 1.242h0.010l-0.426 1.216-0.464 1.309-0.518 1.424-0.518 1.408-0.406 1.046-0.576 1.491-0.573 1.443-0.358 0.861c-1.386 3.392-2.89 6.781-4.506 10.134l-0.957 1.968 0.006 0.003-0.97 1.936-0.010 0.010-0.010 0.022-0.275 0.541-0.614 1.197-0.627 1.184-0.883 1.648-0.982 1.789-0.17 0.307-0.019 0.026-0.931 1.645c-0.483 0.848-0.81 1.398-1.13 1.946l-0.099 0.147-0.998 1.693-0.627 1.024-0.646 1.043-1.072 1.696-1.219 1.898-0.010-0.010-1.21 1.821-1.299 1.93-1.168 1.677-1.315 1.84-0.992 1.344-0.256 0.342-1.472 1.974-1.264 1.629-1.334 1.712c-0.685 0.854-1.117 1.376-1.53 1.878l-0.006 0.006-0.195 0.234-0.016 0.026-0.010 0.003-1.075 1.309c-0.848 1.011-1.603 1.885-2.349 2.749l-0.010 0.003-0.525 0.608-1.325 1.504-1.389 1.52-1.418 1.51-1.002 1.056 0.006 0.006-0.986 1.027-1.059 1.078-0.49 0.493-1.536 1.533-1.408 1.366-1.92 1.84-1.347 1.248c-0.522 0.474-1.046 0.96-1.917 1.731l-1.542 1.37-1.926 1.658-1.53 1.283-1.942 1.6-1.648 1.312-1.99 1.565-1.622 1.242-0.003-0.010-1.99 1.478-1.77 1.29-2.038 1.437-1.744 1.203-1.686 1.126-0.010 0.003-0.278 0.182-0.010 0.003-0.221 0.147-0.282 0.192-1.357 0.89-2.243 1.424-0.384 0.237-1.331 0.829-2.003 1.213-2.013 1.178-2.109 1.2-2.153 1.184-0.042 0.010v0.010l-2.080 1.11-2.147 1.123-0.035 0.010-0.074 0.032-0.010 0.006-2.045 1.034-2.17 1.053-2.186 1.037-2.077 0.954-0.093 0.038c-2.851 1.28-5.773 2.502-8.755 3.667l-2.16 0.832-2.186 0.8-0.045 0.013-0.064 0.019-0.013 0.006-0.054 0.022-2.131 0.758-2.218 0.752-0.038 0.010c-2.106 0.698-4.221 1.363-6.333 1.987l-1.245 0.358-1.267 0.352-0.022 0.010-0.064 0.022-2.259 0.611-2.262 0.589c-1.062 0.266-2.122 0.515-3.174 0.762l-0.611 0.144-0.669 0.154-0.054 0.010-2.266 0.502-2.208 0.454-0.051 0.006-2.234 0.432-2.205 0.4-0.032-0.003-0.077 0.013-2.16 0.368-2.179 0.336-0.317 0.042-2.125 0.307-2.31 0.301-1.91 0.198v154.463l436.829-252.2c25.942-14.982 40.538-42.067 40.787-70.006v-65.763l0.003-222.23c0.054-7.434-1.078-13.008-3.917-17.75v-0.013c-2.832-4.73-7.277-8.493-13.853-12.326l-251.085-144.982c-23.962-12.592-53.661-13.008-78.826 1.52l-110.477 63.786 309.078 178.221c2.496 1.498 4.474 3.469 5.747 5.667 0.973 1.69 1.53 3.51 1.565 5.325 0.035 1.811-0.426 3.658-1.475 5.418-1.232 2.070-3.286 4.061-6.307 5.802l0.006 0.006v0.035zM170.458 165.638l176.71 102.029 1.238-1.594 0.006-0.016 1.232-1.616 1.418-1.824 1.261-1.574 1.245-1.536 0.339-0.41 1.328-1.581-0.010-0.003 1.309-1.53 0.077-0.086 1.392-1.584 1.376-1.549 0.23-0.262 1.373-1.491 1.514-1.603c6.394-6.726 13.242-12.934 20.464-18.576 1.478-1.149 2.899-2.227 4.266-3.232 1.427-1.050 2.88-2.090 4.333-3.094l0.035-0.029 0.013-0.006 1.667-1.142 1.699-1.13 0.246-0.17 1.523-0.989 1.558-0.986 0.694-0.445 1.53-0.941 2.048-1.242c0.662-0.394 1.427-0.842 2.25-1.309l0.448-0.262 0.448-0.253 0.016-0.003 0.49-0.282 1.642-0.928 1.69-0.915 0.234-0.131 1.734-0.918 1.76-0.909 0.214-0.099 0.003-0.010c5.302-2.698 10.739-5.136 16.285-7.325 1.206-0.477 2.288-0.896 3.242-1.248 0.963-0.362 2.080-0.765 3.261-1.184l0.032-0.016 0.202-0.074 1.862-0.637 1.85-0.621 0.275-0.090 1.702-0.541-0.003-0.010 2.547-0.778 1.67-0.496 1.674-0.48 0.624-0.173 1.648-0.448 1.667-0.438 1.005-0.256 1.478-0.365 1.456-0.349 1.456-0.333 2.659-0.589 1.744-0.358 1.29-0.253 1.264-0.253 2.858-0.509 1.475-0.253 1.114-0.17 1.578-0.246 1.539-0.227 0.922-0.122c3.638-0.496 7.318-0.886 11.034-1.168l2.182-0.154 2.163-0.134 0.010 0.010h0.022l0.605-0.038v-0.006l1.344-0.061 1.341-0.048 1.869-0.058 2.384-0.048 0.010 0.006 0.032-0.003 1.888-0.016c0.976-0.006 1.616 0 2.25 0.006l-0.003 0.006 0.179 0.003 1.965 0.022 1.203 0.029 1.229 0.038 2 0.080 2.253 0.109v0.010l2.182 0.134 2.32 0.166 2.032 0.173 2.253 0.218 1.661 0.186 2.867 0.339 2.045 0.285 2.147 0.294c1.082 0.163 1.754 0.278 2.394 0.384l0.010 0.006 0.301 0.048h0.032l0.006 0.006 1.67 0.278c1.309 0.234 2.435 0.442 3.562 0.659l0.79 0.154 1.965 0.406 2.013 0.438 2.016 0.47 1.414 0.342 0.003-0.010 1.382 0.339 2.134 0.557 2.096 0.566 1.891 0.531 2.554 0.742 1.75 0.547c0.675 0.211 1.357 0.426 2.461 0.787l1.955 0.656 2.4 0.838 1.875 0.685 2.355 0.877 1.962 0.774 2.349 0.944 1.888 0.784 2.272 0.989 1.997 0.886 2.259 1.046 1.92 0.915 2.121 1.049 0.246 0.125 0.307 0.15 1.456 0.73 2.746 1.443 1.386 0.739 2.048 1.13 2.026 1.152 2.090 1.226 2.086 1.261 0.022 0.016 0.032 0.022 0.010-0.003 2.003 1.245 2.077 1.322 0.054 0.045 0.010 0.003 1.914 1.254 2.003 1.354 1.984 1.376 1.875 1.325 0.074 0.061c2.534 1.824 5.056 3.744 7.555 5.744l0.013 0.003 1.789 1.453 1.818 1.517 0.064 0.051 0.013 0.013 0.042 0.035v-0.010l1.725 1.475 1.741 1.526 0.022 0.013 0.029 0.032v-0.010c1.661 1.478 3.293 2.976 4.89 4.496l0.931 0.902 0.941 0.918 0.022 0.010 0.054 0.048v0.010l1.654 1.642 1.616 1.648 0.032 0.022c0.765 0.787 1.504 1.578 2.25 2.362l0.432 0.461 0.438 0.474 0.022 0.032 0.042 0.042 1.562 1.706 1.539 1.734 1.491 1.715 1.45 1.706 0.010 0.032 0.054 0.058 1.402 1.686 1.379 1.715 0.198 0.253 1.328 1.686 1.331 1.75 0.064 0.086 0.019 0.013 1.126 1.555 1.67-0.966 132.099-76.266-436.829-252.202c-25.942-14.979-56.699-14.077-81.018-0.323l-1.375 0.797-248.040 143.197c-6.461 3.667-10.721 7.44-13.412 12.262l-0.006 0.016c-2.682 4.813-3.718 10.541-3.75 18.154l0.006 0.006-0.022 289.939c1.074 27.043 15.564 52.97 40.729 67.501l110.474 63.782-0.003-3.725-0.187-353.056c0.049-2.912 0.763-5.613 2.032-7.811 0.979-1.686 2.273-3.075 3.829-4.019 1.547-0.938 3.381-1.459 5.426-1.43 2.411 0.035 5.164 0.822 8.178 2.563l-0.020-0.010z" />
<glyph unicode="&#xe935;" glyph-name="rounding-0" d="M877.714 804.571h-877.714v146.286h1024v-1024h-146.286v877.714z" />
<glyph unicode="&#xe936;" glyph-name="rounding-1" d="M731.429 804.571h-731.429v146.286h731.429c161.58 0 292.571-130.989 292.571-292.571v-731.429h-146.286v731.429c0 80.791-65.492 146.286-146.286 146.286z" />
<glyph unicode="&#xe937;" glyph-name="rounding-2" d="M512 804.571h-512v146.286h512c282.77 0 512-229.23 512-512v-512h-146.286v512c0 201.978-163.736 365.714-365.714 365.714z" />
<glyph unicode="&#xe938;" glyph-name="rounding-3" d="M219.429 804.571h-219.429v146.286h219.429c444.352 0 804.571-360.219 804.571-804.571v-219.429h-146.286v219.429c0 363.561-294.725 658.286-658.286 658.286z" />
<glyph unicode="&#xe939;" glyph-name="rounding-4" d="M877.714-73.143c0 484.748-392.966 877.714-877.714 877.714v146.286c565.54 0 1024-458.46 1024-1024h-146.286z" />
<glyph unicode="&#xe93a;" glyph-name="zendesk" d="M469.597 617.43v-558.112h-462.276l462.276 558.112zM469.597 817.763c0-61.301-24.352-120.092-67.699-163.439s-102.138-67.698-163.44-67.698c-61.301 0-120.092 24.352-163.439 67.698s-67.699 102.138-67.699 163.439h462.276zM545.75 259.651v558.113h462.323l-462.323-558.113zM825.846 125.487c-2.688 0.144-5.331-0.733-7.395-2.458-2.064-1.728-3.398-4.17-3.731-6.842h21.51c-0.154 2.608-1.331 5.046-3.277 6.79-1.946 1.741-4.499 2.643-7.107 2.509zM776.89 290.508c-61.309-0.013-120.099-24.378-163.443-67.731-43.347-43.354-67.696-102.15-67.696-163.456h462.275c0.006 30.358-5.968 60.419-17.581 88.467s-28.637 53.536-50.099 75.002c-21.466 21.469-46.947 38.499-74.992 50.118-28.048 11.619-58.109 17.6-88.464 17.6v0z" />
<glyph unicode="&#xe93b;" glyph-name="text-background-color" horiz-adv-x="1609" d="M365.852 416.208l89.674 235.71c34.105-69.477 66.458-148.419 97.058-236.766-13.37-0.704-23.393-1.055-30.068-1.055-20.026 0-48.244 0.352-84.653 1.055s-60.412 1.056-72.011 1.056zM146.286 950.857h731.429c80.794 0 146.286-65.494 146.286-146.286v-731.429c0-80.794-65.492-146.286-146.286-146.286h-731.429c-80.791 0-146.286 65.492-146.286 146.286v731.429c0 80.791 65.494 146.286 146.286 146.286zM73.146 73.26c-0.001 0 0.001 0 0 0zM74.206 114.527l-1.061-41.267c37.963 0 71.014 2.443 99.152 7.336 1.063 0 4.844 0.695 11.342 2.077 6.498 1.39 11.155 2.085 13.971 2.085 20.4 0 51.079-1.748 92.036-5.252 40.958-3.496 71.637-5.252 92.036-5.252 0.709 6.283 1.063 10.993 1.063 14.139 0 13.634-0.177 23.764-0.532 30.391-1.044-0.022-8.251 0.673-21.621 2.085-13.37 1.404-23.393 2.889-30.068 4.454s-15.201 3.92-25.579 7.073c-10.377 3.145-18.027 7.431-22.95 12.844-4.923 5.42-7.384 11.966-7.384 19.653 0 8.741 8.88 37.113 26.642 85.121 17.762 48.006 31.211 82.139 40.348 102.397l237.357-1.056c0.354-1.036 7.739-18.499 22.152-52.386s27.075-64.882 37.985-92.984c10.909-28.101 16.364-44.946 16.364-50.534 0.020-2.801-0.423-5.244-1.329-7.336s-2.491-4.008-4.756-5.749c-2.265-1.741-4.194-3.138-5.789-4.191-1.595-1.061-4.234-2.194-7.916-3.408-3.683-1.207-6.233-1.989-7.65-2.341s-4.145-0.973-8.182-1.851c-4.037-0.878-6.233-1.317-6.587-1.317l-69.086-14.672c-1.398-12.215-2.097-25.841-2.097-40.858 13.725 0.351 45.024 1.748 93.898 4.198 48.873 2.443 86.671 3.664 113.39 3.664 22.506 0 56.093-1.397 100.754-4.198 44.654-2.794 78.065-4.191 100.213-4.191 0 1.39 0.088 3.569 0.271 6.539 0.176 2.977 0.263 5.332 0.263 7.073 0 6.627-1.053 16.581-3.16 29.857-5.281 2.092-20.048 5.669-44.303 10.737-24.261 5.061-39.731 10.218-46.402 15.455-5.281 4.184-11.432 14.139-18.461 29.864-10.203 20.253-22.864 49.676-37.99 88.257-15.119 38.581-25.322 63.806-30.596 75.676-14.416 33.184-34.458 81.113-60.138 143.784-25.678 62.672-44.315 107.628-55.913 134.868l-108.134 251.403c-1.044 2.444-2.973 6.11-5.789 10.999h-67.521l-147.683-379.231-125-322.648c-4.214-10.818-9.669-19.632-16.364-26.456-6.695-6.832-14.523-11.893-23.482-15.199s-17.663-5.837-26.111-7.592c-8.447-1.763-18.47-3.599-30.068-5.515s-21.443-4.096-29.537-6.546zM1389.714 292.571l-219.429 219.429h438.857l-219.429-219.429z" />
<glyph unicode="&#xe93c;" glyph-name="text-show-blocks" d="M950.857 877.714v-877.714h-292.571v877.714h292.571zM585.143 950.857v-1024h438.857v1024h-438.857zM73.143 292.571v-292.571h365.714v292.571h-365.714zM512 365.714v-438.857h-512v438.857h512zM0 950.857h73.143v-73.143h-73.143v73.143zM0 804.571h73.143v-73.143h-73.143v73.143zM0 658.286h73.143v-73.143h-73.143v73.143zM0 512h73.143v-73.143h-73.143v73.143zM146.286 512h73.143v-73.143h-73.143v73.143zM292.571 512h73.143v-73.143h-73.143v73.143zM146.286 950.857h73.143v-73.143h-73.143v73.143zM292.571 950.857h73.143v-73.143h-73.143v73.143zM438.857 950.857h73.143v-73.143h-73.143v73.143zM438.857 804.571h73.143v-73.143h-73.143v73.143zM438.857 658.286h73.143v-73.143h-73.143v73.143zM438.857 512h73.143v-73.143h-73.143v73.143z" />
<glyph unicode="&#xe93d;" glyph-name="text-clear-format" horiz-adv-x="1170" d="M46.302 950.217l30.847-15.421c4.565-1.898 44.755-2.847 120.569-2.847 16.767 0 41.907 0.384 75.421 1.152s58.653 1.152 75.42 1.152c26.665 0 73.618 0.192 140.856 0.576s125.242 0.48 174.007 0.288c48.766-0.192 95.816-1.045 141.143-2.559 12.566-0.384 23.23 5.524 32 17.724l23.998 0.576c1.514 0 4.184-0.096 8.002-0.288s6.48-0.288 8.002-0.288c0.761-42.658 1.148-106.644 1.148-191.959 0-30.479-0.951-51.232-2.845-62.259-14.848-5.332-27.802-8.755-38.846-10.269-9.516 16.764-19.8 41.143-30.852 73.136-1.148 3.434-3.24 12.477-6.268 27.13s-5.888 28.655-8.58 42.007c-2.684 13.352-4.016 20.209-3.994 20.572-3.818 4.948-8.96 8.564-15.426 10.846-1.902 0.767-14.475 1.151-37.727 1.151-11.433 0-29.15 0.192-53.148 0.576s-43.614 0.576-58.845 0.576c-15.231 0-33.14-0.384-53.726-1.152s-38.867-2.101-54.845-3.999c0 0-146.317-564.066-142.862-618.723 15.231-7.998 38.846-16.092 70.845-24.279 31.999-8.192 54.856-15.338 68.572-21.438 1.899-15.228 2.848-24.752 2.848-28.57 0-5.332-0.576-10.854-1.728-16.574l-19.422-0.578c-28.948-0.768-70.471 0.761-124.57 4.579s-93.52 5.727-118.266 5.727c-19.049 0-47.805-1.719-86.268-5.149-38.461-3.438-67.41-5.157-86.843-5.157-1.152 19.434-1.728 29.338-1.728 29.725v5.149c6.485 10.284 18.196 18.469 35.134 24.569s35.7 11.63 56.285 16.575c20.585 4.949 35.444 10.089 44.573 15.421 0 0 149.102 562.414 152.814 599.879-0.96 10.28-2.197 16.369-3.712 18.267-4.181 4.565-35.038 6.847-92.571 6.847-15.615 0-46.664-2.57-93.147-7.711s-72.764-9.811-78.844-14.013c-7.232-4.564-13.706-18.183-19.423-40.855s-11.722-43.905-18.015-63.698c-6.293-19.793-14.389-30.074-24.287-30.841-15.999 9.896-26.665 18.278-31.998 25.147v218.801l46.302 0.48zM1128.389-66.275l35.028 35.028c4.579 4.579 6.868 10.167 6.868 16.772 0 6.597-2.289 12.442-6.868 17.532l-143.228 143.228 143.228 143.228c4.579 5.091 6.868 10.936 6.868 17.535s-2.289 12.188-6.868 16.767l-35.028 35.029c-4.579 4.579-10.167 6.869-16.772 6.869-6.597 0-12.442-2.289-17.532-6.869l-143.228-143.228-143.228 143.228c-5.091 4.579-10.935 6.869-17.532 6.869-6.605 0-12.193-2.289-16.772-6.869l-35.028-35.029c-4.579-4.579-6.868-10.168-6.868-16.767s2.289-12.445 6.868-17.535l143.996-143.228-143.996-143.228c-4.579-5.091-6.868-10.935-6.868-17.532 0-6.605 2.289-12.193 6.868-16.772l35.028-35.028c4.579-4.579 10.167-6.868 16.772-6.868 6.597 0 12.442 2.289 17.532 6.868l143.228 143.996 143.228-143.996c5.091-4.579 10.935-6.868 17.532-6.868 6.605 0 12.193 2.289 16.772 6.868zM0 0h585.143v-73.143h-585.143v73.143z" />
<glyph unicode="&#xe93e;" glyph-name="text-color" horiz-adv-x="1463" d="M382.383 725.061l-89.674-235.71c11.598 0 35.602-0.352 72.011-1.056s64.627-1.055 84.653-1.055c6.675 0 16.699 0.352 30.068 1.055-30.6 88.348-62.953 167.26-97.058 236.737v0.029zM0 146.286l1.063 41.384c8.093 2.45 17.939 4.63 29.537 6.546s21.621 3.752 30.068 5.515c8.447 1.755 17.151 4.286 26.11 7.592s16.787 8.368 23.482 15.195c6.695 6.825 12.15 15.644 16.364 26.457l125 322.65 147.683 379.231h67.521c2.816-4.889 4.746-8.555 5.789-10.999l108.134-251.403c11.598-27.24 30.236-72.196 55.913-134.868s45.723-110.6 60.137-143.784c5.277-11.87 15.477-37.095 30.6-75.676s27.783-68.001 37.987-88.259c7.029-15.722 13.18-25.675 18.461-29.862 6.671-5.237 22.14-10.394 46.402-15.455 24.254-5.069 39.022-8.645 44.303-10.737 2.107-13.275 3.16-23.23 3.16-29.857 0-1.741-0.088-4.096-0.263-7.073-0.183-2.97-0.271-5.149-0.271-6.539-22.148 0-55.559 1.397-100.213 4.191-44.661 2.801-78.246 4.198-100.753 4.198-26.721 0-64.518-1.221-113.392-3.664-48.873-2.45-80.172-3.847-93.897-4.198 0 15.016 0.699 28.643 2.097 40.858l69.086 14.672c0.355 0 2.55 0.439 6.587 1.317s6.764 1.499 8.182 1.851c1.418 0.351 3.967 1.134 7.65 2.341 3.682 1.214 6.32 2.348 7.916 3.408 1.595 1.053 3.525 2.45 5.789 4.191s3.85 3.657 4.756 5.75c0.906 2.093 1.349 4.536 1.329 7.333 0 5.593-5.455 22.439-16.364 50.539s-23.57 59.094-37.985 92.982c-14.414 33.888-21.798 51.35-22.152 52.386l-237.357 1.056c-9.137-20.258-22.586-54.391-40.348-102.397s-26.642-76.38-26.642-85.121c0-7.684 2.461-14.236 7.384-19.653 4.923-5.413 12.573-9.699 22.95-12.844 10.378-3.152 18.904-5.508 25.579-7.073s16.699-3.050 30.068-4.454c13.371-1.412 20.577-2.107 21.621-2.085 0.355-6.627 0.532-16.757 0.532-30.391 0-3.145-0.354-7.856-1.063-14.139-20.4 0-51.079 1.755-92.036 5.252-40.958 3.504-71.636 5.252-92.036 5.252-2.816 0-7.473-0.695-13.971-2.085-6.498-1.382-10.279-2.077-11.342-2.077-28.138-4.893-61.19-7.336-99.155-7.336v-0.117zM1243.429 365.714l-219.429 219.429h438.857l-219.429-219.429zM0 73.143h877.714v-146.286h-877.714v146.286z" />
<glyph unicode="&#xe93f;" glyph-name="alignment-bottom" d="M73.143 0v73.143h877.714v-73.143h-877.714zM292.571 219.428v438.857h146.286v-438.857h-146.286zM585.143 219.428v658.286h146.286v-658.286h-146.286z" />
<glyph unicode="&#xe940;" glyph-name="line-dotted" d="M219.429 438.857c0 60.594-49.121 109.714-109.714 109.714s-109.714-49.121-109.714-109.714c0-60.594 49.121-109.714 109.714-109.714s109.714 49.121 109.714 109.714zM1024 438.857c0 60.594-49.121 109.714-109.714 109.714s-109.714-49.121-109.714-109.714c0-60.594 49.121-109.714 109.714-109.714s109.714 49.121 109.714 109.714zM621.714 438.857c0 60.594-49.121 109.714-109.714 109.714s-109.714-49.121-109.714-109.714c0-60.594 49.121-109.714 109.714-109.714s109.714 49.121 109.714 109.714z" />
<glyph unicode="&#xe941;" glyph-name="line-none" d="M0 512h146.286v-146.286h-146.286v146.286zM292.571 512h146.286v-146.286h-146.286v146.286zM585.143 512h146.286v-146.286h-146.286v146.286zM877.714 512h146.286v-146.286h-146.286v146.286z" />
<glyph unicode="&#xe942;" glyph-name="line-solid" d="M0 512h1024v-146.286h-1024v146.286z" />
<glyph unicode="&#xe943;" glyph-name="line-dashed" d="M0 512h146.286v-146.286h-146.286v146.286zM292.571 512h146.286v-146.286h-146.286v146.286zM585.143 512h146.286v-146.286h-146.286v146.286zM877.714 512h146.286v-146.286h-146.286v146.286z" />
<glyph unicode="&#xe944;" glyph-name="line-double" d="M0 658.286h1024v-146.286h-1024v146.286zM0 365.714h1024v-146.286h-1024v146.286z" />
<glyph unicode="&#xe945;" glyph-name="text-left" d="M0 658.286h877.714v-146.286h-877.714v146.286zM0 950.857h585.143v-146.286h-585.143v146.286zM0 365.714h731.429v-146.286h-731.429v146.286zM0 73.143h1024v-146.286h-1024v146.286z" />
<glyph unicode="&#xe946;" glyph-name="text-center" d="M73.143 658.286h877.714v-146.286h-877.714v146.286zM219.429 950.857h585.143v-146.286h-585.143v146.286zM146.286 365.714h731.429v-146.286h-731.429v146.286zM0 73.143h1024v-146.286h-1024v146.286z" />
<glyph unicode="&#xe947;" glyph-name="text-right" d="M146.286 658.286h877.714v-146.286h-877.714v146.286zM438.857 950.857h585.143v-146.286h-585.143v146.286zM292.571 365.714h731.429v-146.286h-731.429v146.286zM0 73.143h1024v-146.286h-1024v146.286z" />
<glyph unicode="&#xe948;" glyph-name="text-justify" d="M0 73.143h1024v-146.286h-1024v146.286zM0 365.714h1024v-146.286h-1024v146.286zM0 658.286h1024v-146.286h-1024v146.286zM0 950.857h1024v-146.286h-1024v146.286z" />
<glyph unicode="&#xe949;" glyph-name="alignment-center-horizontal" d="M512 0h-73.143v877.714h73.143v-877.714zM877.714 512h-804.571v146.286h804.571v-146.286zM731.429 219.428h-512v146.286h512v-146.286z" />
<glyph unicode="&#xe94a;" glyph-name="alignment-center-vertical" d="M73.143 438.857v73.143h877.714v-73.143h-877.714zM585.143 73.143v804.571h146.286v-804.571h-146.286zM292.571 219.428v512h146.286v-512h-146.286z" />
</font>
</defs>
</svg>
